<svg width="14" height="10" viewBox="0 0 14 10" fill="none" xmlns="http://www.w3.org/2000/svg">
<g id="Afghanistan (AF)">
<g clip-path="url(#clip0_817_2373)">
<g id="Group">
<path id="Vector" fill-rule="evenodd" clip-rule="evenodd" d="M0 0H14V10H0V0Z" fill="black"/>
<path id="Vector_2" fill-rule="evenodd" clip-rule="evenodd" d="M9.33405 0H14V10H9.33405V0Z" fill="#009900"/>
<path id="Vector_3" fill-rule="evenodd" clip-rule="evenodd" d="M4.66595 0H9.33408V10H4.66595V0Z" fill="#BF0000"/>
</g>
<g id="Group_2">
<path id="Vector_4" fill-rule="evenodd" clip-rule="evenodd" d="M7.45445 5.57147H7.64753C7.64753 5.64237 7.69406 5.7177 7.75222 5.75979H7.38C7.43816 5.71105 7.45445 5.64902 7.45445 5.57147Z" fill="white" stroke="#BD6B00" stroke-width="0.0664662"/>
<path id="Vector_5" fill-rule="evenodd" clip-rule="evenodd" d="M6.2262 4.52352L6.33321 4.63429L7.65921 4.63872L7.76622 4.52795L7.42658 4.5213L7.26373 4.41052H6.72868L6.57514 4.52352H6.2262Z" fill="white"/>
<path id="Vector_6" fill-rule="evenodd" clip-rule="evenodd" d="M6.76822 4.395H7.22651C7.28699 4.36398 7.30793 4.26428 7.30793 4.20889C7.30793 4.04494 7.18463 3.96518 7.06367 3.96075C7.04505 3.96075 7.02412 3.94746 7.01946 3.93195C7.00783 3.8965 7.01016 3.87213 6.9962 3.87435C6.9869 3.87435 6.98922 3.8965 6.97992 3.92752C6.97294 3.94524 6.95433 3.96075 6.93339 3.96297C6.78451 3.96961 6.6868 4.07375 6.68913 4.20889C6.69145 4.29751 6.70309 4.35069 6.76822 4.395Z" fill="white" stroke="#BD6B00" stroke-width="0.0664662"/>
<path id="Vector_7" fill-rule="evenodd" clip-rule="evenodd" d="M6.01679 5.94808H7.97788L7.8034 5.81293H6.18894L6.01447 5.94808H6.01679Z" fill="white"/>
<g id="Vector_8">
<path fill-rule="evenodd" clip-rule="evenodd" d="M6.9171 5.43632L6.95199 5.53823H7.03341L6.96828 5.43632H6.9171ZM6.87057 5.53823L6.89384 5.64015H6.98689L6.95199 5.53823H6.87057ZM7.03341 5.53823L7.09855 5.64015H7.2358L7.12879 5.53823H7.03341ZM6.23083 5.76865C6.30295 5.7044 6.34948 5.65122 6.34948 5.57368H6.52628C6.52628 5.61799 6.54256 5.64236 6.56815 5.64015H6.74728V5.54045H6.617V4.99321C6.61235 4.79824 6.86359 4.68746 6.96595 4.68746H6.35413V4.66974H7.64058V4.68746H7.02411C7.20789 4.68746 7.38469 4.85363 7.38702 4.99321V5.1483H7.36375L7.36143 4.99542C7.36143 4.84255 7.15904 4.70076 6.99619 4.70519C6.85661 4.7074 6.63794 4.8359 6.64027 4.99321V5.04195L6.97293 5.04417L6.9706 5.09955L7.02178 5.13057L7.12647 5.16159V5.24578L7.20091 5.26572V5.34769L7.28931 5.38536V5.46955L7.34747 5.50278L7.34514 5.58919L7.42191 5.64015H7.24046L7.35445 5.762H7.18463L7.10088 5.64015H6.99154L7.04039 5.75979H6.92408L6.89384 5.64015H6.7496V5.76865H6.23316H6.23083ZM6.74728 5.43632V5.53823H6.87057L6.84731 5.43632H6.74495H6.74728Z" fill="white"/>
<path d="M6.95199 5.53823L6.9171 5.43632H6.96828L7.03341 5.53823M6.95199 5.53823H7.03341M6.95199 5.53823L6.98689 5.64015H6.89384M6.95199 5.53823H6.87057M7.03341 5.53823L7.09855 5.64015H7.2358L7.12879 5.53823H7.03341ZM6.87057 5.53823L6.89384 5.64015M6.87057 5.53823H6.74728V5.43632H6.74495H6.84731L6.87057 5.53823ZM6.89384 5.64015L6.92408 5.75979H7.04039L6.99154 5.64015H7.10088L7.18463 5.762H7.35445L7.24046 5.64015H7.42191L7.34514 5.58919L7.34747 5.50278L7.28931 5.46955V5.38536L7.20091 5.34769V5.26572L7.12647 5.24578V5.16159L7.02178 5.13057L6.9706 5.09955L6.97293 5.04417L6.64027 5.04195V4.99321C6.63794 4.8359 6.85661 4.7074 6.99619 4.70519C7.15904 4.70076 7.36143 4.84255 7.36143 4.99542L7.36375 5.1483H7.38702V4.99321C7.38469 4.85363 7.20789 4.68746 7.02411 4.68746H7.64058V4.66974H6.35413V4.68746H6.96595C6.86359 4.68746 6.61235 4.79824 6.617 4.99321V5.54045H6.74728V5.64015H6.56815C6.54256 5.64236 6.52628 5.61799 6.52628 5.57368H6.34948C6.34948 5.65122 6.30295 5.7044 6.23083 5.76865H6.23316H6.7496V5.64015H6.89384Z" stroke="#BD6B00" stroke-width="0.0664662"/>
</g>
<path id="Vector_9" fill-rule="evenodd" clip-rule="evenodd" d="M6.75427 5.25909H6.83104V5.42748H6.75427V5.25909Z" stroke="#BD6B00" stroke-width="0.0664662"/>
<path id="Vector_10" fill-rule="evenodd" clip-rule="evenodd" d="M6.6449 5.43855H6.71934V5.31447C6.71934 5.2613 6.77052 5.20591 6.79378 5.2037C6.8217 5.2037 6.86124 5.25466 6.86357 5.31004V5.43855H6.94267V5.11951H6.6449V5.43855ZM7.24043 5.51166H7.33349V5.58256H7.24043V5.51166ZM7.1846 5.39423H7.27766V5.46292H7.1846V5.39423ZM7.09388 5.27459H7.18693V5.34328H7.09388V5.27459ZM7.01711 5.1749H7.11016V5.24358H7.01711V5.1749Z" stroke="#BD6B00" stroke-width="0.0664662"/>
<path id="Vector_11" fill-rule="evenodd" clip-rule="evenodd" d="M6.95428 5.43853L7.05199 5.44296L7.22181 5.58475V5.50056L7.16365 5.46068V5.39422L7.07991 5.3499V5.27679L6.99848 5.25021V5.15494L6.95894 5.1217L6.95661 5.44074L6.95428 5.43853Z" stroke="#BD6B00" stroke-width="0.0664662"/>
<path id="Vector_12" fill-rule="evenodd" clip-rule="evenodd" d="M7.35907 5.22803H7.38233V5.38533H7.35907V5.22803Z" fill="white" stroke="#BD6B00" stroke-width="0.0664662"/>
<g id="a">
<path id="Vector_13" fill-rule="evenodd" clip-rule="evenodd" d="M6.00747 4.70074C5.97955 4.65643 5.94466 4.76278 5.82602 4.84032C5.77251 4.87577 5.73297 4.97104 5.73297 5.03308C5.73297 5.07739 5.73762 5.11948 5.73297 5.16158C5.73064 5.18595 5.7004 5.24577 5.72133 5.26128C5.77251 5.29673 5.83998 5.38092 5.87022 5.40972C5.89813 5.43187 5.9214 5.29229 5.94001 5.23247C5.96327 5.16601 5.95397 5.08403 6.01445 5.02421C6.05632 4.9799 6.16333 4.94002 6.15403 4.9223L6.00747 4.70074Z" fill="white" stroke="#BD6B00" stroke-width="0.0664662"/>
<path id="Vector_14" fill-rule="evenodd" clip-rule="evenodd" d="M6.00055 5.04194C5.99131 5.02104 5.97876 5.00161 5.96333 4.98434C5.94849 4.96682 5.9293 4.95312 5.9075 4.94446C5.88607 4.9384 5.86677 4.92692 5.85167 4.91122C5.84276 4.90172 5.83638 4.89032 5.83305 4.87799C5.83041 4.86333 5.83041 4.84834 5.83305 4.83368L5.82608 4.84033C5.77257 4.87577 5.73302 4.97104 5.73302 5.03308C5.7323 5.05006 5.7323 5.06706 5.73302 5.08404C5.73768 5.09511 5.74 5.10619 5.74698 5.11284L5.77257 5.13056L5.83538 5.14607C5.8589 5.15614 5.87961 5.17132 5.89587 5.19038C5.9128 5.20746 5.92691 5.22688 5.93774 5.24799L5.94239 5.23026C5.961 5.17044 5.95868 5.09954 6.00288 5.04194H6.00055Z" fill="#BF0000" stroke="#BD6B00" stroke-width="0.0664662"/>
<path id="Vector_15" d="M5.83302 4.83142C5.82139 4.90453 5.86559 4.93112 5.90746 4.94441C5.94933 4.95992 5.98423 5.00202 6.00051 5.0419M5.72833 5.07513C5.74694 5.1416 5.79347 5.13273 5.83534 5.14603C5.87722 5.16154 5.92142 5.21249 5.94003 5.25237" stroke="#BD6B00" stroke-width="0.0664662"/>
<path id="Vector_16" fill-rule="evenodd" clip-rule="evenodd" d="M5.96796 4.65642L5.99122 4.64313L6.40298 5.30557L6.37971 5.31887L5.96796 4.65421V4.65642Z" fill="white" stroke="#BD6B00" stroke-width="0.0664662"/>
<path id="Vector_17" fill-rule="evenodd" clip-rule="evenodd" d="M6.01218 4.62984C6.01218 4.64159 6.00728 4.65286 5.99855 4.66117C5.98983 4.66948 5.97799 4.67415 5.96565 4.67415C5.95332 4.67415 5.94148 4.66948 5.93276 4.66117C5.92403 4.65286 5.91913 4.64159 5.91913 4.62984C5.91913 4.61809 5.92403 4.60682 5.93276 4.59851C5.94148 4.5902 5.95332 4.58553 5.96565 4.58553C5.97799 4.58553 5.98983 4.5902 5.99855 4.59851C6.00728 4.60682 6.01218 4.61809 6.01218 4.62984ZM6.36578 4.09811H6.53328V4.13356H6.36578V4.09811ZM6.36578 4.16679H6.53328V4.47254H6.36578V4.16679ZM6.35648 4.05602H6.54258C6.54723 3.9962 6.48442 3.93195 6.44953 3.93195C6.41231 3.93416 6.35415 3.99841 6.35648 4.05602Z" fill="white" stroke="#BD6B00" stroke-width="0.0664662"/>
<path id="Vector_18" fill-rule="evenodd" clip-rule="evenodd" d="M6.82867 4.02055C6.79377 4.03385 6.76586 4.07151 6.74957 4.11582C6.73329 4.16013 6.72631 4.21109 6.73561 4.25097C6.73561 4.26648 6.74259 4.27534 6.74724 4.2842C6.7519 4.29085 6.75655 4.29528 6.7612 4.29528C6.76818 4.29528 6.77516 4.29528 6.77749 4.28863L6.78214 4.27091C6.77981 4.2266 6.77981 4.18672 6.78912 4.15127C6.79947 4.1119 6.82421 4.07734 6.85891 4.05379C6.86589 4.04936 6.86821 4.04271 6.87054 4.03828C6.87045 4.03243 6.86794 4.02686 6.86356 4.02277C6.85426 4.01612 6.8403 4.01391 6.82867 4.02055ZM6.83332 4.02942C6.84262 4.02498 6.85193 4.02942 6.85658 4.03163L6.85891 4.03606C6.85891 4.03828 6.85891 4.04049 6.85193 4.04492C6.81619 4.06989 6.79069 4.10592 6.77981 4.14684C6.77016 4.18753 6.7678 4.22947 6.77283 4.27091C6.77283 4.2757 6.7712 4.28037 6.76818 4.2842C6.76818 4.2842 6.76818 4.28642 6.76353 4.2842C6.76353 4.2842 6.75888 4.2842 6.75422 4.27756C6.74962 4.26924 6.74648 4.26026 6.74492 4.25097C6.73794 4.21109 6.74492 4.16235 6.7612 4.11804C6.77749 4.07816 6.80308 4.04271 6.83099 4.02942H6.83332Z" fill="#BD6B00"/>
<path id="Vector_19" fill-rule="evenodd" clip-rule="evenodd" d="M6.88915 4.06267C6.85426 4.07818 6.83099 4.11363 6.81936 4.15572C6.80701 4.19828 6.80462 4.24291 6.81238 4.28644C6.81704 4.31524 6.83565 4.33075 6.8496 4.33075C6.85658 4.33297 6.86356 4.33075 6.86822 4.3241C6.87287 4.31746 6.87519 4.31081 6.87287 4.30195C6.86356 4.2665 6.86124 4.22662 6.86589 4.18895C6.87287 4.15129 6.88915 4.11806 6.91707 4.09812C6.92405 4.09147 6.9287 4.08704 6.9287 4.08039C6.92891 4.07799 6.92861 4.07558 6.92781 4.07329C6.92701 4.071 6.92573 4.0689 6.92405 4.0671C6.91474 4.06045 6.90078 4.05824 6.88915 4.06267ZM6.8938 4.07375C6.90311 4.06932 6.91242 4.07153 6.91707 4.07375L6.91939 4.08039L6.91242 4.08926C6.8968 4.10118 6.88382 4.11593 6.87424 4.13267C6.86465 4.1494 6.85865 4.16778 6.85658 4.18674C6.8496 4.22662 6.85426 4.26871 6.86124 4.30195C6.86356 4.31081 6.86124 4.31524 6.86124 4.31967L6.8496 4.32189C6.84263 4.32189 6.82634 4.31081 6.82169 4.28422C6.81471 4.24656 6.81704 4.19782 6.82867 4.15794C6.8403 4.11806 6.86356 4.08482 6.8938 4.07375Z" fill="#BD6B00"/>
<path id="Vector_20" fill-rule="evenodd" clip-rule="evenodd" d="M6.35647 4.72064H6.54258V4.96435H6.35647V4.72064ZM6.3681 5.10615H6.54723V5.15932H6.3681V5.10615ZM6.36345 5.19698H6.54956V5.38974H6.36345V5.19698ZM6.34949 5.42962H6.55188V5.53818H6.34949V5.42962ZM6.37508 5.06184H6.53793L6.57049 5.00866H6.34717L6.37508 5.06184ZM6.59376 4.8713L6.59608 4.73837H6.70775C6.65975 4.77396 6.62078 4.81939 6.59376 4.8713Z" fill="white" stroke="#BD6B00" stroke-width="0.0664662"/>
<path id="Vector_21" fill-rule="evenodd" clip-rule="evenodd" d="M6.38672 4.92674C6.38672 4.95554 6.42161 4.94446 6.42161 4.92895V4.80488C6.42161 4.78272 6.47745 4.78716 6.47745 4.80266V4.9356C6.47745 4.95775 6.51699 4.95554 6.51467 4.9356V4.78051C6.51467 4.73177 6.38672 4.73398 6.38672 4.77829V4.92674ZM6.38672 5.2214H6.51932V5.37649H6.38672V5.2214Z" stroke="#BD6B00" stroke-width="0.0664662"/>
<g id="Vector_22">
<path fill-rule="evenodd" clip-rule="evenodd" d="M6.47041 5.28785H6.51694V5.31H6.47041V5.28785ZM6.38899 5.28785H6.43552V5.31H6.38899V5.28785ZM6.43552 5.22138H6.47041V5.28785H6.43552V5.22138ZM6.43552 5.31H6.47041V5.37868H6.43552V5.31ZM5.69808 3.64834C5.70738 3.7702 5.66551 3.83888 5.59804 3.8278C5.57943 3.76134 5.62131 3.71481 5.69808 3.64834ZM5.54686 3.92086C5.48638 3.89205 5.53058 3.66607 5.55384 3.5708C5.57013 3.69266 5.60037 3.86547 5.54686 3.92086Z" fill="white"/>
<path d="M6.47041 5.28785H6.51694V5.31H6.47041M6.47041 5.28785V5.31M6.47041 5.28785V5.22138H6.43552V5.28785M6.47041 5.28785H6.43552M6.47041 5.31H6.43552M6.47041 5.31V5.37868H6.43552V5.31M6.43552 5.28785H6.38899V5.31H6.43552M6.43552 5.28785V5.31M5.69808 3.64834C5.70738 3.7702 5.66551 3.83888 5.59804 3.8278C5.57943 3.76134 5.62131 3.71481 5.69808 3.64834ZM5.54686 3.92086C5.48638 3.89205 5.53058 3.66607 5.55384 3.5708C5.57013 3.69266 5.60037 3.86547 5.54686 3.92086Z" stroke="#BD6B00" stroke-width="0.0664662"/>
</g>
<path id="Vector_23" fill-rule="evenodd" clip-rule="evenodd" d="M5.56782 3.93192C5.67018 3.96516 5.75393 3.86103 5.77952 3.73917C5.69577 3.84995 5.55852 3.84995 5.57015 3.93192H5.56782ZM5.49105 4.04492C5.41196 4.02498 5.45849 3.7857 5.47477 3.69043C5.49105 3.79013 5.54689 4.01168 5.49105 4.04492ZM5.51897 4.03827C5.52362 3.95629 5.6097 3.97845 5.67018 3.93414C5.65855 3.97845 5.62365 4.04935 5.51897 4.03827ZM5.42126 4.14905C5.34217 4.12689 5.3887 3.86989 5.38404 3.76354C5.40731 3.8566 5.48175 4.12468 5.42126 4.14905ZM5.45849 4.13797C5.52362 4.15791 5.6097 4.11581 5.61668 4.0427C5.55852 4.08037 5.47012 4.05156 5.45849 4.13797Z" fill="white" stroke="#BD6B00" stroke-width="0.0664662"/>
<path id="Vector_24" fill-rule="evenodd" clip-rule="evenodd" d="M5.3608 4.26204C5.28635 4.26869 5.31892 4.04935 5.31892 3.84552C5.34684 4.03606 5.42361 4.21108 5.3608 4.26204Z" fill="white" stroke="#BD6B00" stroke-width="0.0664662"/>
<path id="Vector_25" fill-rule="evenodd" clip-rule="evenodd" d="M5.38867 4.2532C5.43985 4.27536 5.53058 4.23769 5.55617 4.15572C5.46311 4.19338 5.40263 4.15572 5.38867 4.2532ZM5.98421 3.76135C5.97025 3.86991 5.92373 3.93195 5.85626 3.92087C5.83765 3.85441 5.89348 3.81009 5.98421 3.76135ZM5.80276 4.03608C5.91675 4.05159 5.95629 3.96961 6.03539 3.86105C5.92605 3.93638 5.7981 3.94967 5.80276 4.0383V4.03608Z" fill="white" stroke="#BD6B00" stroke-width="0.0664662"/>
<path id="Vector_26" fill-rule="evenodd" clip-rule="evenodd" d="M5.7679 4.02497C5.70741 3.95407 5.7679 3.86323 5.81443 3.7879C5.80512 3.9009 5.84467 3.96515 5.7679 4.02497ZM5.74464 4.14239C5.73533 4.07149 5.86095 4.05598 5.91678 4.01832C5.89585 4.0582 5.87026 4.16676 5.74231 4.14239H5.74464Z" fill="white" stroke="#BD6B00" stroke-width="0.0664662"/>
<path id="Vector_27" fill-rule="evenodd" clip-rule="evenodd" d="M5.71668 4.14241C5.63061 4.13355 5.6655 3.99397 5.72831 3.91864C5.70272 4.02499 5.77484 4.0981 5.71668 4.14241Z" fill="white" stroke="#BD6B00" stroke-width="0.0664662"/>
<path id="Vector_28" fill-rule="evenodd" clip-rule="evenodd" d="M5.65157 4.25982C5.55386 4.21551 5.61667 4.1003 5.65157 4.03162C5.63761 4.12245 5.7167 4.19114 5.65157 4.2576V4.25982Z" fill="white" stroke="#BD6B00" stroke-width="0.0664662"/>
<path id="Vector_29" fill-rule="evenodd" clip-rule="evenodd" d="M5.67017 4.24656C5.72135 4.31302 5.82138 4.22883 5.84232 4.13135C5.75625 4.20003 5.69111 4.18895 5.67017 4.24877V4.24656ZM5.44685 4.69631C5.43754 4.60104 5.51198 4.43045 5.45848 4.33739C5.4515 4.3241 5.47476 4.29087 5.49105 4.31081C5.51431 4.34404 5.53757 4.43709 5.5492 4.40164C5.55851 4.36398 5.56084 4.29973 5.59573 4.28644C5.61899 4.27979 5.64924 4.27314 5.63993 4.30859C5.63063 4.33961 5.61202 4.38392 5.63295 4.38613C5.64458 4.38613 5.67948 4.34182 5.70972 4.31967C5.73298 4.30194 5.7702 4.33296 5.73298 4.35955C5.62132 4.44817 5.51198 4.49027 5.44685 4.69631ZM5.24446 6.12534C5.2305 6.12534 5.21421 6.11869 5.2305 6.13863C5.3631 6.29372 5.40032 6.33803 5.5934 6.31587C5.78649 6.2915 5.83302 6.24054 5.97027 6.16743C6.01 6.14752 6.05349 6.13531 6.09821 6.13151C6.14293 6.1277 6.188 6.13238 6.23082 6.14527C6.26804 6.15635 6.2913 6.15635 6.26338 6.12977C6.23547 6.1054 6.20523 6.06995 6.17033 6.04558C6.08355 5.99029 5.97778 5.96888 5.87489 5.98576C5.73531 6.00791 5.61667 6.09432 5.47476 6.12755C5.39876 6.14217 5.32046 6.14217 5.24446 6.12755V6.12534ZM6.35644 6.40228C6.3797 6.40671 6.39598 6.45102 6.40994 6.42222C6.42855 6.37126 6.41459 6.3336 6.39133 6.33581C6.36342 6.34246 6.31922 6.40228 6.35644 6.40228Z" fill="white" stroke="#BD6B00" stroke-width="0.0664662"/>
<path id="Vector_30" fill-rule="evenodd" clip-rule="evenodd" d="M5.15375 4.62316C5.12583 4.59214 5.13281 4.58328 5.17701 4.58106C5.20958 4.58106 5.27472 4.60322 5.30031 4.58328C5.32357 4.56777 5.31194 4.50131 5.32357 4.4725C5.32822 4.45256 5.33985 4.42819 5.3701 4.46807C5.45384 4.59657 5.5562 4.75166 5.60273 4.90232C5.62599 4.98651 5.60273 5.11944 5.52363 5.20806C5.52363 5.13273 5.49572 5.08178 5.46082 5.01753C5.4143 4.93555 5.24913 4.70735 5.15375 4.62094V4.62316Z" fill="white"/>
<path id="Vector_31" fill-rule="evenodd" clip-rule="evenodd" d="M5.50035 5.29671C5.5934 5.29671 5.60968 5.17929 5.60968 5.14606C5.56316 5.15492 5.48406 5.22803 5.50035 5.29671ZM6.30293 6.44658C6.36806 6.45987 6.36574 6.30922 6.29827 6.24497C6.32852 6.34245 6.25175 6.43107 6.3006 6.44436L6.30293 6.44658ZM6.27501 6.44436C6.27966 6.51526 6.08891 6.4355 6.04238 6.3779C6.15404 6.42442 6.27036 6.38676 6.27501 6.44436ZM6.19359 6.34245C6.20057 6.41113 6.03075 6.3491 5.97724 6.29592C6.09123 6.33137 6.18661 6.28485 6.19359 6.34023V6.34245ZM6.22383 6.35131C6.2913 6.36682 6.27966 6.20952 6.21453 6.15634C6.2471 6.26047 6.17265 6.3358 6.22383 6.35131ZM6.15404 6.25604C6.22151 6.27155 6.18196 6.1364 6.13311 6.08323C6.14241 6.18071 6.10984 6.2494 6.15637 6.25604H6.15404ZM6.11915 6.25604C6.12613 6.32694 5.99353 6.27377 5.94235 6.20509C6.05401 6.23832 6.11217 6.19844 6.11915 6.25604ZM6.08425 6.20065C6.12613 6.17185 6.08193 6.09431 5.99818 6.09874C6.00748 6.14527 6.0354 6.22946 6.08425 6.20065ZM6.40994 6.52634C6.41226 6.59724 6.22383 6.56179 6.16335 6.48646C6.28432 6.50862 6.40296 6.46874 6.40761 6.52634H6.40994ZM5.65621 6.39784C5.66319 6.46874 5.45615 6.38898 5.40497 6.32251C5.51431 6.35796 5.64923 6.34023 5.65621 6.39784ZM5.78183 6.42664C5.82603 6.39784 5.73763 6.32251 5.66552 6.30479C5.67482 6.35131 5.73531 6.45544 5.78183 6.42886V6.42664ZM5.79579 6.4776C5.80044 6.54185 5.57479 6.5064 5.51663 6.44658C5.70972 6.47981 5.78881 6.42221 5.79579 6.4776Z" fill="white" stroke="#BD6B00" stroke-width="0.0664662"/>
<path id="Vector_32" fill-rule="evenodd" clip-rule="evenodd" d="M5.90279 6.51969C5.92605 6.57951 5.7097 6.564 5.63293 6.53077C5.75623 6.53077 5.88418 6.4776 5.90279 6.51969Z" fill="white" stroke="#BD6B00" stroke-width="0.0664662"/>
<path id="Vector_33" fill-rule="evenodd" clip-rule="evenodd" d="M6.00284 6.564C6.0261 6.61718 5.82604 6.61718 5.72833 6.58616C5.85861 6.58616 5.97958 6.51083 6.00284 6.564ZM6.1494 6.59281C6.18662 6.65706 5.9726 6.66149 5.90513 6.63047C6.0261 6.61496 6.11915 6.54185 6.1494 6.59281ZM5.90048 6.48424C5.83302 6.52412 5.83767 6.40448 5.78416 6.32251C5.86791 6.39562 5.94701 6.44658 5.90048 6.48424Z" fill="white" stroke="#BD6B00" stroke-width="0.0664662"/>
<path id="Vector_34" fill-rule="evenodd" clip-rule="evenodd" d="M6.02148 6.52856C5.96565 6.57509 5.91912 6.41114 5.86794 6.31809C5.95169 6.40671 6.07266 6.48868 6.02148 6.52635V6.52856ZM6.17967 6.57287C6.13314 6.62605 5.99356 6.41778 5.94238 6.30701C6.01915 6.39341 6.21689 6.52856 6.17967 6.57287ZM6.04474 6.73239C6.02148 6.81215 5.66788 6.65706 5.626 6.57509C5.83072 6.677 6.04939 6.65485 6.04474 6.73018V6.73239ZM4.91182 5.09732C4.90252 5.08624 4.87926 5.09732 4.88391 5.12169C4.89089 5.15493 4.94207 5.32552 5.03047 5.38313C5.09328 5.42744 5.42594 5.49612 5.57483 5.52714C5.65857 5.54265 5.72604 5.58253 5.78187 5.64456C5.76275 5.57104 5.73945 5.49856 5.71208 5.42744C5.68416 5.36097 5.60972 5.29007 5.53063 5.28786C5.38872 5.28121 5.20261 5.27013 5.06536 5.21475C5.00319 5.18978 4.94932 5.14919 4.9095 5.09732H4.91182Z" fill="white" stroke="#BD6B00" stroke-width="0.0664662"/>
<path id="Vector_35" fill-rule="evenodd" clip-rule="evenodd" d="M5.733 5.77306C5.77952 5.80407 5.82838 5.69108 5.77254 5.58252C5.77022 5.68665 5.68414 5.7221 5.733 5.77306Z" fill="white" stroke="#BD6B00" stroke-width="0.0664662"/>
<path id="Vector_36" fill-rule="evenodd" clip-rule="evenodd" d="M5.77721 5.87716C5.84002 5.89488 5.85863 5.78854 5.81908 5.70435C5.82606 5.79518 5.71905 5.85057 5.77721 5.87716Z" fill="white" stroke="#BD6B00" stroke-width="0.0664662"/>
<path id="Vector_37" fill-rule="evenodd" clip-rule="evenodd" d="M5.82606 5.96138C5.88654 5.99018 5.90748 5.88162 5.86561 5.80408C5.87026 5.90378 5.77953 5.93479 5.82606 5.95917V5.96138Z" fill="white" stroke="#BD6B00" stroke-width="0.0664662"/>
<path id="Vector_38" fill-rule="evenodd" clip-rule="evenodd" d="M5.80049 5.96804C5.77722 6.03451 5.63764 5.90822 5.61438 5.83954C5.70045 5.92151 5.81677 5.91044 5.80049 5.96582V5.96804Z" fill="white" stroke="#BD6B00" stroke-width="0.0664662"/>
<path id="Vector_39" fill-rule="evenodd" clip-rule="evenodd" d="M5.73766 5.86389C5.70975 5.93036 5.53527 5.75312 5.49573 5.67114C5.5818 5.75312 5.75628 5.81515 5.73766 5.86168V5.86389Z" fill="white" stroke="#BD6B00" stroke-width="0.0664662"/>
<path id="Vector_40" fill-rule="evenodd" clip-rule="evenodd" d="M5.70278 5.75976C5.67487 5.8373 5.48643 5.63125 5.4306 5.55814C5.52366 5.6379 5.72372 5.70437 5.70278 5.75976ZM5.6958 5.68443C5.76559 5.67113 5.69348 5.61796 5.60973 5.53156C5.6074 5.62239 5.62136 5.68664 5.6958 5.68443Z" fill="white" stroke="#BD6B00" stroke-width="0.0664662"/>
<path id="Vector_41" fill-rule="evenodd" clip-rule="evenodd" d="M5.58176 5.63123C5.612 5.60243 5.55617 5.58914 5.48638 5.51381C5.47475 5.56477 5.55152 5.65782 5.58409 5.63123H5.58176ZM5.90744 5.96799C5.94467 5.99015 5.96793 5.91704 5.92373 5.85279C5.9121 5.92368 5.87488 5.94141 5.90744 5.96799ZM5.11184 5.51824C5.03507 5.56255 4.91178 5.38531 4.87921 5.31219C4.94667 5.39639 5.1258 5.47171 5.11184 5.51824Z" fill="white" stroke="#BD6B00" stroke-width="0.0664662"/>
<path id="Vector_42" fill-rule="evenodd" clip-rule="evenodd" d="M5.17933 5.62017C5.13513 5.66448 5.0002 5.54263 4.95367 5.48059C5.02346 5.54041 5.19794 5.54706 5.17933 5.62017Z" fill="white" stroke="#BD6B00" stroke-width="0.0664662"/>
<path id="Vector_43" fill-rule="evenodd" clip-rule="evenodd" d="M5.25144 5.71322C5.23748 5.77526 5.04207 5.63568 4.99554 5.56921C5.07929 5.64676 5.2654 5.64011 5.25144 5.71322Z" fill="white" stroke="#BD6B00" stroke-width="0.0664662"/>
<path id="Vector_44" fill-rule="evenodd" clip-rule="evenodd" d="M5.22121 5.78191C5.19097 5.8373 5.03045 5.69772 4.99091 5.62682C5.09094 5.70658 5.2468 5.72652 5.22354 5.78191H5.22121ZM5.13979 5.5094C5.18864 5.45844 5.16771 5.43407 5.13048 5.35431C5.11187 5.43628 5.08163 5.46952 5.13979 5.5094ZM5.20725 5.60467C5.30031 5.6091 5.20725 5.50275 5.18399 5.41191C5.1933 5.51383 5.16073 5.5958 5.20725 5.60467Z" fill="white" stroke="#BD6B00" stroke-width="0.0664662"/>
<path id="Vector_45" fill-rule="evenodd" clip-rule="evenodd" d="M5.26542 5.68888C5.32823 5.67558 5.31194 5.58918 5.26076 5.48505C5.2724 5.59804 5.20726 5.66229 5.26542 5.68888ZM5.24215 5.85947C5.21889 5.92594 5.03744 5.77085 5.00952 5.70882C5.10257 5.78414 5.25844 5.80852 5.24215 5.85947Z" fill="white" stroke="#BD6B00" stroke-width="0.0664662"/>
<path id="Vector_46" fill-rule="evenodd" clip-rule="evenodd" d="M5.35147 5.96581C5.32588 6.03227 5.13512 5.89491 5.07697 5.81958C5.19095 5.9082 5.36543 5.89934 5.35147 5.96581Z" fill="white" stroke="#BD6B00" stroke-width="0.0664662"/>
<path id="Vector_47" fill-rule="evenodd" clip-rule="evenodd" d="M5.46315 6.07435C5.4329 6.16962 5.23284 6.01675 5.17468 5.94142C5.3003 6.03447 5.4771 6.00789 5.46315 6.07435ZM5.27704 5.83064C5.33055 5.85501 5.35148 5.711 5.32124 5.60687C5.32124 5.71765 5.2119 5.80184 5.27471 5.82843L5.27704 5.83064Z" fill="white" stroke="#BD6B00" stroke-width="0.0664662"/>
<path id="Vector_48" fill-rule="evenodd" clip-rule="evenodd" d="M5.36777 5.94588C5.43291 5.9636 5.4143 5.8063 5.35614 5.70217C5.34916 5.8063 5.30264 5.90157 5.36777 5.94588ZM5.48409 6.05444C5.55388 6.05666 5.50735 5.91929 5.44687 5.84175C5.45617 5.94145 5.4236 6.04115 5.48409 6.05444ZM5.35614 6.11204C5.33288 6.14749 5.2817 6.08324 5.1933 6.0345C5.27239 6.05666 5.36545 6.07881 5.35614 6.11204ZM5.31427 4.94445C5.38406 4.89571 5.33055 4.80709 5.31427 4.7229C5.291 4.80266 5.23517 4.90901 5.31427 4.94445ZM5.31427 5.06188C5.20958 5.0508 5.22587 4.92673 5.22121 4.84697C5.25378 4.95553 5.33753 4.97326 5.31427 5.06409V5.06188ZM5.32822 5.04637C5.4143 5.04194 5.40965 4.94889 5.4143 4.85583C5.3701 4.94224 5.32125 4.95553 5.32822 5.04637Z" fill="white" stroke="#BD6B00" stroke-width="0.0664662"/>
<path id="Vector_49" fill-rule="evenodd" clip-rule="evenodd" d="M5.32591 5.16155C5.25612 5.1682 5.22355 5.10395 5.20959 5.00646C5.27241 5.0973 5.32824 5.0685 5.32591 5.16155ZM5.34917 5.1549C5.43525 5.16598 5.41896 5.07071 5.41896 4.99982C5.39105 5.06628 5.32126 5.08844 5.34917 5.1549Z" fill="white" stroke="#BD6B00" stroke-width="0.0664662"/>
<path id="Vector_50" fill-rule="evenodd" clip-rule="evenodd" d="M5.21423 5.11505C5.22121 5.17709 5.26309 5.28343 5.33055 5.25906C5.35614 5.18373 5.27007 5.16822 5.21423 5.11505Z" fill="white" stroke="#BD6B00" stroke-width="0.0664662"/>
<path id="Vector_51" fill-rule="evenodd" clip-rule="evenodd" d="M5.34918 5.26568C5.32126 5.21251 5.41897 5.18371 5.43758 5.11281C5.44921 5.21473 5.4399 5.28119 5.34918 5.2679V5.26568ZM5.07234 4.61875C5.12585 4.56557 5.07932 4.47695 5.06304 4.39276C5.03978 4.47252 5.00488 4.57887 5.07234 4.61875ZM5.07234 4.72066C4.97929 4.73174 4.95603 4.55006 4.9444 4.47031C4.97697 4.57887 5.08398 4.62539 5.07234 4.72288V4.72066ZM5.09095 4.72066C5.15609 4.68743 5.14213 4.61653 5.16074 4.56557C5.11887 4.62982 5.077 4.63869 5.09095 4.72066Z" fill="white" stroke="#BD6B00" stroke-width="0.0664662"/>
<path id="Vector_52" fill-rule="evenodd" clip-rule="evenodd" d="M5.06999 4.84028C4.97461 4.84693 4.91646 4.64531 4.9118 4.56555C4.94205 4.67411 5.08395 4.73172 5.07232 4.84028H5.06999ZM5.09093 4.83585C5.18398 4.81591 5.17235 4.7583 5.15839 4.66747C5.12815 4.76052 5.07697 4.74058 5.09093 4.83585Z" fill="white" stroke="#BD6B00" stroke-width="0.0664662"/>
<path id="Vector_53" fill-rule="evenodd" clip-rule="evenodd" d="M5.07002 4.95554C4.96301 4.97327 4.96998 4.80932 4.88391 4.69189C4.95835 4.78052 5.09328 4.89129 5.07002 4.95554ZM5.09328 4.9489C5.17703 4.95333 5.18633 4.8359 5.18168 4.78716C5.16074 4.8359 5.06536 4.88022 5.09561 4.95111L5.09328 4.9489Z" fill="white" stroke="#BD6B00" stroke-width="0.0664662"/>
<path id="Vector_54" fill-rule="evenodd" clip-rule="evenodd" d="M4.90253 4.82922C4.94207 4.95551 5.00023 5.0818 5.07002 5.07293C5.10492 4.99982 5.00256 4.99096 4.90253 4.82922Z" fill="white" stroke="#BD6B00" stroke-width="0.0664662"/>
<path id="Vector_55" fill-rule="evenodd" clip-rule="evenodd" d="M5.09559 5.05302C5.06767 4.99763 5.16538 4.97104 5.18399 4.90015C5.19562 5.00206 5.18632 5.06853 5.09559 5.05302ZM4.93042 4.97326C4.98858 5.08625 5.01417 5.21697 5.09326 5.19703C5.1235 5.10841 5.00486 5.09068 4.93042 4.97326Z" fill="white" stroke="#BD6B00" stroke-width="0.0664662"/>
<path id="Vector_56" fill-rule="evenodd" clip-rule="evenodd" d="M5.10954 5.17705C5.07465 5.11502 5.17235 5.09508 5.19794 5.0131C5.20957 5.11945 5.19794 5.19699 5.10954 5.17484V5.17705ZM5.27704 4.41269C5.33287 4.42598 5.39335 4.36617 5.37242 4.27533C5.30728 4.28862 5.27936 4.34623 5.27704 4.41269ZM5.09326 4.36617C5.09791 4.39275 5.1328 4.39497 5.12117 4.3573C5.11249 4.33288 5.11249 4.3064 5.12117 4.28197C5.13238 4.24884 5.13238 4.21319 5.12117 4.18006C5.11187 4.1579 5.0793 4.1712 5.09326 4.18892C5.10722 4.20886 5.10954 4.25096 5.09791 4.2709C5.08395 4.2997 5.0886 4.33736 5.09326 4.36617ZM5.62598 4.72065C5.60272 4.74945 5.55852 4.72951 5.59342 4.68742C5.62133 4.65419 5.66321 4.62538 5.66321 4.58994C5.66786 4.54562 5.69345 4.47916 5.71904 4.45479C5.74463 4.43042 5.77487 4.46365 5.74695 4.48137C5.71671 4.4991 5.69577 4.57886 5.6981 4.60987C5.69577 4.65419 5.65157 4.68742 5.62598 4.72065ZM5.55619 4.66969C5.53293 4.70071 5.50036 4.68077 5.51897 4.63203C5.53526 4.5988 5.53758 4.55449 5.55619 4.53012C5.58411 4.49245 5.62598 4.46143 5.65157 4.43706C5.67949 4.41491 5.6981 4.43706 5.67484 4.45922C5.64632 4.48634 5.62061 4.51602 5.59807 4.54784C5.5655 4.59658 5.57946 4.63646 5.55619 4.66969ZM5.19096 4.51018C5.18864 4.55449 5.22586 4.56335 5.22353 4.50131C5.22353 4.43485 5.17235 4.37281 5.20027 4.27311C5.21888 4.22437 5.21888 4.13353 5.20957 4.08701C5.20027 4.03827 5.16305 4.06928 5.17933 4.10695C5.19329 4.15126 5.17701 4.23102 5.16537 4.27311C5.13048 4.39275 5.19329 4.45036 5.18864 4.51018H5.19096ZM5.29099 4.26647C5.28634 4.30856 5.24912 4.31078 5.26075 4.25539C5.27006 4.21108 5.27006 4.17563 5.26075 4.13796C5.24679 4.09144 5.25145 4.01168 5.26075 3.97845C5.27238 3.943 5.30728 3.96294 5.29332 3.98952C5.27708 4.0314 5.27465 4.07701 5.28634 4.12024C5.3003 4.16455 5.29797 4.22659 5.29099 4.26868V4.26647ZM4.92809 5.08843C4.9467 5.10837 4.97462 5.09508 4.95135 5.06628C4.92809 5.04412 4.93507 5.03969 4.92111 5.0131C4.90715 4.98209 4.90948 4.96658 4.89319 4.94664C4.87691 4.92448 4.85597 4.94664 4.86993 4.96215C4.88854 4.9843 4.88389 4.99759 4.89319 5.01753C4.91646 5.05077 4.90948 5.06849 4.92809 5.08843ZM5.40266 5.63346C5.43109 5.64842 5.45527 5.66976 5.47311 5.69562C5.49094 5.72149 5.50189 5.7511 5.50502 5.7819C5.50745 5.83707 5.52338 5.89093 5.55154 5.9392C5.50502 5.92812 5.48175 5.85722 5.47477 5.78854C5.46779 5.71765 5.42825 5.68884 5.40498 5.63346H5.40266ZM5.5213 5.76417C5.56085 5.83285 5.61435 5.85944 5.61901 5.9104C5.62366 5.97022 5.62831 5.97243 5.6446 6.03004C5.59807 6.01896 5.58644 6.01453 5.57481 5.92591C5.56783 5.86387 5.51432 5.82178 5.5213 5.76417Z" fill="white" stroke="#BD6B00" stroke-width="0.0664662"/>
<path id="Vector_57" fill-rule="evenodd" clip-rule="evenodd" d="M6.74493 6.40224C6.7682 6.44212 6.79146 6.50194 6.83799 6.49086C6.83799 6.46206 6.78913 6.4399 6.74493 6.40224ZM6.81472 6.41553C6.9008 6.45098 6.97757 6.44212 6.9892 6.49529C6.90545 6.50415 6.87288 6.47313 6.8124 6.41553H6.81472ZM6.44019 6.13416C6.49799 6.17695 6.53897 6.23705 6.5565 6.30475C6.57525 6.366 6.60348 6.42424 6.64025 6.47756C6.57975 6.43885 6.53596 6.38063 6.51695 6.31361C6.50067 6.24715 6.47973 6.19619 6.44019 6.13637V6.13416ZM6.5123 6.13416C6.57744 6.1829 6.63792 6.2405 6.65653 6.30918C6.67514 6.37343 6.68678 6.42218 6.73098 6.48643C6.66119 6.44433 6.6356 6.3823 6.61466 6.31361C6.59838 6.24715 6.5565 6.19841 6.5123 6.13637V6.13416ZM6.72632 6.29589C6.72541 6.29035 6.72653 6.28468 6.7295 6.27984C6.73247 6.275 6.7371 6.27127 6.74261 6.2693C6.76251 6.26262 6.78269 6.2567 6.80309 6.25158C6.82635 6.24493 6.84031 6.26044 6.84031 6.27152V6.31583C6.84031 6.33134 6.83566 6.33355 6.82403 6.33577C6.80774 6.33798 6.78448 6.3402 6.7682 6.35128C6.75424 6.36014 6.74028 6.35349 6.7333 6.3402L6.72632 6.29589ZM6.97291 6.29589C6.97291 6.2826 6.96826 6.27152 6.95896 6.2693C6.94129 6.26234 6.9222 6.25931 6.90312 6.26044C6.87986 6.26044 6.87753 6.26487 6.87753 6.27373V6.32026C6.87753 6.33799 6.87753 6.33799 6.88684 6.34242C6.90312 6.34242 6.92871 6.34242 6.945 6.35571C6.95663 6.36236 6.96826 6.35571 6.97059 6.34242L6.97291 6.29589Z" fill="white"/>
</g>
<g id="a_2">
<path id="Vector_58" fill-rule="evenodd" clip-rule="evenodd" d="M7.99418 4.70074C8.02209 4.65643 8.05699 4.76278 8.17563 4.84032C8.22914 4.87577 8.26868 4.97104 8.26868 5.03308C8.26868 5.07739 8.26403 5.11948 8.26868 5.16158C8.27101 5.18595 8.30125 5.24577 8.28031 5.26128C8.22914 5.29673 8.16167 5.38092 8.13143 5.40972C8.10351 5.43187 8.08025 5.29229 8.06164 5.23247C8.03838 5.16601 8.04768 5.08403 7.9872 5.02421C7.94532 4.9799 7.83831 4.94002 7.84762 4.9223L7.99418 4.70074Z" fill="white" stroke="#BD6B00" stroke-width="0.0664662"/>
<path id="Vector_59" fill-rule="evenodd" clip-rule="evenodd" d="M8.0011 5.04194C8.01034 5.02104 8.02289 5.00161 8.03832 4.98434C8.05315 4.96682 8.07235 4.95312 8.09415 4.94446C8.11558 4.9384 8.13488 4.92692 8.14998 4.91122C8.15888 4.90172 8.16526 4.89032 8.16859 4.87799C8.17124 4.86333 8.17124 4.84834 8.16859 4.83368L8.17557 4.84033C8.22908 4.87577 8.26863 4.97104 8.26863 5.03308C8.26935 5.05006 8.26935 5.06706 8.26863 5.08404C8.26397 5.09511 8.26165 5.10619 8.25467 5.11284L8.22908 5.13056L8.16627 5.14607C8.14275 5.15614 8.12204 5.17132 8.10578 5.19038C8.08885 5.20746 8.07473 5.22688 8.06391 5.24799L8.05926 5.23026C8.04065 5.17044 8.04297 5.09954 7.99877 5.04194H8.0011Z" fill="#BF0000" stroke="#BD6B00" stroke-width="0.0664662"/>
<path id="Vector_60" d="M8.16863 4.83142C8.18026 4.90453 8.13606 4.93112 8.09419 4.94441C8.05232 4.95992 8.01742 5.00202 8.00114 5.0419M8.27332 5.07513C8.2547 5.1416 8.20818 5.13273 8.1663 5.14603C8.12443 5.16154 8.08023 5.21249 8.06162 5.25237" stroke="#BD6B00" stroke-width="0.0664662"/>
<path id="Vector_61" fill-rule="evenodd" clip-rule="evenodd" d="M8.03369 4.65642L8.01043 4.64313L7.59867 5.30557L7.62193 5.31887L8.03369 4.65421V4.65642Z" fill="white" stroke="#BD6B00" stroke-width="0.0664662"/>
<path id="Vector_62" fill-rule="evenodd" clip-rule="evenodd" d="M7.98947 4.62984C7.98947 4.64159 7.99437 4.65286 8.00309 4.66117C8.01182 4.66948 8.02365 4.67415 8.03599 4.67415C8.04833 4.67415 8.06017 4.66948 8.06889 4.66117C8.07762 4.65286 8.08252 4.64159 8.08252 4.62984C8.08252 4.61809 8.07762 4.60682 8.06889 4.59851C8.06017 4.5902 8.04833 4.58553 8.03599 4.58553C8.02365 4.58553 8.01182 4.5902 8.00309 4.59851C7.99437 4.60682 7.98947 4.61809 7.98947 4.62984ZM7.63587 4.09811H7.46837V4.13356H7.63587V4.09811ZM7.63587 4.16679H7.46837V4.47254H7.63587V4.16679ZM7.64517 4.05602H7.45907C7.45441 3.9962 7.51722 3.93195 7.55212 3.93195C7.58934 3.93416 7.6475 3.99841 7.64517 4.05602Z" fill="white" stroke="#BD6B00" stroke-width="0.0664662"/>
<path id="Vector_63" fill-rule="evenodd" clip-rule="evenodd" d="M7.17298 4.02055C7.20788 4.03385 7.23579 4.07151 7.25208 4.11582C7.26836 4.16013 7.27534 4.21109 7.26603 4.25097C7.26603 4.26648 7.25906 4.27534 7.2544 4.2842C7.24975 4.29085 7.2451 4.29528 7.24045 4.29528C7.23347 4.29528 7.22649 4.29528 7.22416 4.28863L7.21951 4.27091C7.22183 4.2266 7.22184 4.18672 7.21253 4.15127C7.20218 4.1119 7.17744 4.07734 7.14274 4.05379C7.13576 4.04936 7.13343 4.04271 7.13111 4.03828C7.1312 4.03243 7.1337 4.02686 7.13809 4.02277C7.14739 4.01612 7.16135 4.01391 7.17298 4.02055ZM7.16833 4.02942C7.15902 4.02498 7.14972 4.02942 7.14507 4.03163L7.14274 4.03606C7.14274 4.03828 7.14274 4.04049 7.14972 4.04492C7.18546 4.06989 7.21096 4.10592 7.22183 4.14684C7.23149 4.18753 7.23385 4.22947 7.22881 4.27091C7.22881 4.2757 7.23045 4.28037 7.23347 4.2842C7.23347 4.2842 7.23347 4.28642 7.23812 4.2842C7.23812 4.2842 7.24277 4.2842 7.24742 4.27756C7.25202 4.26924 7.25517 4.26026 7.25673 4.25097C7.26371 4.21109 7.25673 4.16235 7.24045 4.11804C7.22416 4.07816 7.19857 4.04271 7.17066 4.02942H7.16833Z" fill="#BD6B00"/>
<path id="Vector_64" fill-rule="evenodd" clip-rule="evenodd" d="M7.1125 4.06267C7.14739 4.07818 7.17065 4.11363 7.18229 4.15572C7.19464 4.19828 7.19702 4.24291 7.18926 4.28644C7.18461 4.31524 7.166 4.33075 7.15204 4.33075C7.14506 4.33297 7.13809 4.33075 7.13343 4.3241C7.12878 4.31746 7.12645 4.31081 7.12878 4.30195C7.13809 4.2665 7.14041 4.22662 7.13576 4.18895C7.12878 4.15129 7.1125 4.11806 7.08458 4.09812C7.0776 4.09147 7.07295 4.08704 7.07295 4.08039C7.07273 4.07799 7.07304 4.07558 7.07384 4.07329C7.07464 4.071 7.07592 4.0689 7.0776 4.0671C7.08691 4.06045 7.10086 4.05824 7.1125 4.06267ZM7.10784 4.07375C7.09854 4.06932 7.08923 4.07153 7.08458 4.07375L7.08225 4.08039L7.08923 4.08926C7.10485 4.10118 7.11783 4.11593 7.12741 4.13267C7.13699 4.1494 7.143 4.16778 7.14506 4.18674C7.15204 4.22662 7.14739 4.26871 7.14041 4.30195C7.13809 4.31081 7.14041 4.31524 7.14041 4.31967L7.15204 4.32189C7.15902 4.32189 7.17531 4.31081 7.17996 4.28422C7.18694 4.24656 7.18461 4.19782 7.17298 4.15794C7.16135 4.11806 7.13809 4.08482 7.10784 4.07375Z" fill="#BD6B00"/>
<path id="Vector_65" fill-rule="evenodd" clip-rule="evenodd" d="M7.64517 4.72064H7.45907V4.96435H7.64517V4.72064ZM7.63354 5.10615H7.45442V5.15932H7.63354V5.10615ZM7.6382 5.19698H7.45209V5.38974H7.6382V5.19698ZM7.65215 5.42962H7.44976V5.53818H7.65215V5.42962ZM7.62656 5.06184H7.46372L7.43115 5.00866H7.65448L7.62656 5.06184ZM7.40789 4.8713L7.40556 4.73837H7.2939C7.3419 4.77396 7.38086 4.81939 7.40789 4.8713Z" fill="white" stroke="#BD6B00" stroke-width="0.0664662"/>
<path id="Vector_66" fill-rule="evenodd" clip-rule="evenodd" d="M7.61493 4.92674C7.61493 4.95554 7.58003 4.94446 7.58003 4.92895V4.80488C7.58003 4.78272 7.5242 4.78716 7.5242 4.80266V4.9356C7.5242 4.95775 7.48466 4.95554 7.48698 4.9356V4.78051C7.48698 4.73177 7.61493 4.73398 7.61493 4.77829V4.92674ZM7.61493 5.2214H7.48233V5.37649H7.61493V5.2214Z" stroke="#BD6B00" stroke-width="0.0664662"/>
<g id="Vector_67">
<path fill-rule="evenodd" clip-rule="evenodd" d="M7.53123 5.28785H7.48471V5.31H7.53123V5.28785ZM7.61266 5.28785H7.56613V5.31H7.61266V5.28785ZM7.56613 5.22138H7.53123V5.28785H7.56613V5.22138ZM7.56613 5.31H7.53123V5.37868H7.56613V5.31ZM8.30357 3.64834C8.29427 3.7702 8.33614 3.83888 8.4036 3.8278C8.42221 3.76134 8.38034 3.71481 8.30357 3.64834ZM8.45478 3.92086C8.51527 3.89205 8.47107 3.66607 8.4478 3.5708C8.43152 3.69266 8.40128 3.86547 8.45478 3.92086Z" fill="white"/>
<path d="M7.53123 5.28785H7.48471V5.31H7.53123M7.53123 5.28785V5.31M7.53123 5.28785V5.22138H7.56613V5.28785M7.53123 5.28785H7.56613M7.53123 5.31H7.56613M7.53123 5.31V5.37868H7.56613V5.31M7.56613 5.28785H7.61266V5.31H7.56613M7.56613 5.28785V5.31M8.30357 3.64834C8.29427 3.7702 8.33614 3.83888 8.4036 3.8278C8.42221 3.76134 8.38034 3.71481 8.30357 3.64834ZM8.45478 3.92086C8.51527 3.89205 8.47107 3.66607 8.4478 3.5708C8.43152 3.69266 8.40128 3.86547 8.45478 3.92086Z" stroke="#BD6B00" stroke-width="0.0664662"/>
</g>
<path id="Vector_68" fill-rule="evenodd" clip-rule="evenodd" d="M8.43383 3.93192C8.33147 3.96516 8.24772 3.86103 8.22213 3.73917C8.30588 3.84995 8.44313 3.84995 8.4315 3.93192H8.43383ZM8.51059 4.04492C8.58969 4.02498 8.54316 3.7857 8.52688 3.69043C8.51059 3.79013 8.45476 4.01168 8.51059 4.04492ZM8.48268 4.03827C8.47803 3.95629 8.39195 3.97845 8.33147 3.93414C8.3431 3.97845 8.37799 4.04935 8.48268 4.03827ZM8.58038 4.14905C8.65948 4.12689 8.61295 3.86989 8.6176 3.76354C8.59434 3.8566 8.5199 4.12468 8.58038 4.14905ZM8.54316 4.13797C8.47803 4.15791 8.39195 4.11581 8.38497 4.0427C8.44313 4.08037 8.53153 4.05156 8.54316 4.13797Z" fill="white" stroke="#BD6B00" stroke-width="0.0664662"/>
<path id="Vector_69" fill-rule="evenodd" clip-rule="evenodd" d="M8.64085 4.26204C8.7153 4.26869 8.68273 4.04935 8.68273 3.84552C8.65481 4.03606 8.57804 4.21108 8.64085 4.26204Z" fill="white" stroke="#BD6B00" stroke-width="0.0664662"/>
<path id="Vector_70" fill-rule="evenodd" clip-rule="evenodd" d="M8.61298 4.2532C8.5618 4.27536 8.47107 4.23769 8.44548 4.15572C8.53853 4.19338 8.59902 4.15572 8.61298 4.2532ZM8.01744 3.76135C8.0314 3.86991 8.07792 3.93195 8.14539 3.92087C8.164 3.85441 8.10817 3.81009 8.01744 3.76135ZM8.19889 4.03608C8.0849 4.05159 8.04535 3.96961 7.96626 3.86105C8.0756 3.93638 8.20354 3.94967 8.19889 4.0383V4.03608Z" fill="white" stroke="#BD6B00" stroke-width="0.0664662"/>
<path id="Vector_71" fill-rule="evenodd" clip-rule="evenodd" d="M8.23375 4.02497C8.29423 3.95407 8.23375 3.86323 8.18722 3.7879C8.19653 3.9009 8.15698 3.96515 8.23375 4.02497ZM8.25701 4.14239C8.26632 4.07149 8.1407 4.05598 8.08486 4.01832C8.1058 4.0582 8.13139 4.16676 8.25934 4.14239H8.25701Z" fill="white" stroke="#BD6B00" stroke-width="0.0664662"/>
<path id="Vector_72" fill-rule="evenodd" clip-rule="evenodd" d="M8.28497 4.14241C8.37104 4.13355 8.33615 3.99397 8.27333 3.91864C8.29892 4.02499 8.22681 4.0981 8.28497 4.14241Z" fill="white" stroke="#BD6B00" stroke-width="0.0664662"/>
<path id="Vector_73" fill-rule="evenodd" clip-rule="evenodd" d="M8.35008 4.25982C8.44779 4.21551 8.38498 4.1003 8.35008 4.03162C8.36404 4.12245 8.28495 4.19114 8.35008 4.2576V4.25982Z" fill="white" stroke="#BD6B00" stroke-width="0.0664662"/>
<path id="Vector_74" fill-rule="evenodd" clip-rule="evenodd" d="M8.33147 4.24656C8.2803 4.31302 8.18026 4.22883 8.15933 4.13135C8.2454 4.20003 8.31054 4.18895 8.33147 4.24877V4.24656ZM8.5548 4.69631C8.56411 4.60104 8.48966 4.43045 8.54317 4.33739C8.55015 4.3241 8.52689 4.29087 8.5106 4.31081C8.48734 4.34404 8.46407 4.43709 8.45244 4.40164C8.44314 4.36398 8.44081 4.29973 8.40592 4.28644C8.38265 4.27979 8.35241 4.27314 8.36172 4.30859C8.37102 4.33961 8.38963 4.38392 8.3687 4.38613C8.35706 4.38613 8.32217 4.34182 8.29193 4.31967C8.26866 4.30194 8.23144 4.33296 8.26866 4.35955C8.38033 4.44817 8.48966 4.49027 8.5548 4.69631ZM8.75719 6.12534C8.77115 6.12534 8.78743 6.11869 8.77115 6.13863C8.63855 6.29372 8.60133 6.33803 8.40824 6.31587C8.21516 6.2915 8.16863 6.24054 8.03138 6.16743C7.99164 6.14752 7.94816 6.13531 7.90344 6.13151C7.85871 6.1277 7.81364 6.13238 7.77083 6.14527C7.73361 6.15635 7.71035 6.15635 7.73826 6.12977C7.76618 6.1054 7.79642 6.06995 7.83132 6.04558C7.9181 5.99029 8.02387 5.96888 8.12676 5.98576C8.26634 6.00791 8.38498 6.09432 8.52689 6.12755C8.60289 6.14217 8.68119 6.14217 8.75719 6.12755V6.12534ZM7.64521 6.40228C7.62195 6.40671 7.60566 6.45102 7.59171 6.42222C7.57309 6.37126 7.58705 6.3336 7.61032 6.33581C7.63823 6.34246 7.68243 6.40228 7.64521 6.40228Z" fill="white" stroke="#BD6B00" stroke-width="0.0664662"/>
<path id="Vector_75" fill-rule="evenodd" clip-rule="evenodd" d="M8.8479 4.62316C8.87581 4.59214 8.86884 4.58328 8.82464 4.58106C8.79207 4.58106 8.72693 4.60322 8.70134 4.58328C8.67808 4.56777 8.68971 4.50131 8.67808 4.4725C8.67342 4.45256 8.66179 4.42819 8.63155 4.46807C8.5478 4.59657 8.44545 4.75166 8.39892 4.90232C8.37566 4.98651 8.39892 5.11944 8.47801 5.20806C8.47801 5.13273 8.50593 5.08178 8.54082 5.01753C8.58735 4.93555 8.75252 4.70735 8.8479 4.62094V4.62316Z" fill="white"/>
<path id="Vector_76" fill-rule="evenodd" clip-rule="evenodd" d="M8.5013 5.29671C8.40825 5.29671 8.39196 5.17929 8.39196 5.14606C8.43849 5.15492 8.51758 5.22803 8.5013 5.29671ZM7.69872 6.44658C7.63358 6.45987 7.63591 6.30922 7.70337 6.24497C7.67313 6.34245 7.7499 6.43107 7.70105 6.44436L7.69872 6.44658ZM7.72664 6.44436C7.72198 6.51526 7.91274 6.4355 7.95927 6.3779C7.84761 6.42442 7.73129 6.38676 7.72664 6.44436ZM7.80806 6.34245C7.80108 6.41113 7.9709 6.3491 8.02441 6.29592C7.91042 6.33137 7.81504 6.28485 7.80806 6.34023V6.34245ZM7.77782 6.35131C7.71035 6.36682 7.72198 6.20952 7.78712 6.15634C7.75455 6.26047 7.82899 6.3358 7.77782 6.35131ZM7.8476 6.25604C7.78014 6.27155 7.81969 6.1364 7.86854 6.08323C7.85924 6.18071 7.8918 6.2494 7.84528 6.25604H7.8476ZM7.8825 6.25604C7.87552 6.32694 8.00812 6.27377 8.0593 6.20509C7.94764 6.23832 7.88948 6.19844 7.8825 6.25604ZM7.91739 6.20065C7.87552 6.17185 7.91972 6.09431 8.00347 6.09874C7.99416 6.14527 7.96625 6.22946 7.91739 6.20065ZM7.59171 6.52634C7.58938 6.59724 7.77782 6.56179 7.8383 6.48646C7.71733 6.50862 7.59869 6.46874 7.59404 6.52634H7.59171ZM8.34544 6.39784C8.33846 6.46874 8.5455 6.38898 8.59668 6.32251C8.48734 6.35796 8.35242 6.34023 8.34544 6.39784ZM8.21982 6.42664C8.17562 6.39784 8.26402 6.32251 8.33613 6.30479C8.32683 6.35131 8.26634 6.45544 8.21982 6.42886V6.42664ZM8.20586 6.4776C8.20121 6.54185 8.42686 6.5064 8.48502 6.44658C8.29193 6.47981 8.21284 6.42221 8.20586 6.4776Z" fill="white" stroke="#BD6B00" stroke-width="0.0664662"/>
<path id="Vector_77" fill-rule="evenodd" clip-rule="evenodd" d="M8.09886 6.51969C8.0756 6.57951 8.29194 6.564 8.36871 6.53077C8.24542 6.53077 8.11747 6.4776 8.09886 6.51969Z" fill="white" stroke="#BD6B00" stroke-width="0.0664662"/>
<path id="Vector_78" fill-rule="evenodd" clip-rule="evenodd" d="M7.99881 6.564C7.97555 6.61718 8.17561 6.61718 8.27332 6.58616C8.14304 6.58616 8.02207 6.51083 7.99881 6.564ZM7.85225 6.59281C7.81503 6.65706 8.02905 6.66149 8.09652 6.63047C7.97555 6.61496 7.88249 6.54185 7.85225 6.59281ZM8.10117 6.48424C8.16863 6.52412 8.16398 6.40448 8.21748 6.32251C8.13374 6.39562 8.05464 6.44658 8.10117 6.48424Z" fill="white" stroke="#BD6B00" stroke-width="0.0664662"/>
<path id="Vector_79" fill-rule="evenodd" clip-rule="evenodd" d="M7.98017 6.52856C8.036 6.57509 8.08253 6.41114 8.13371 6.31809C8.04996 6.40671 7.92899 6.48868 7.98017 6.52635V6.52856ZM7.82198 6.57287C7.86851 6.62605 8.00808 6.41778 8.05926 6.30701C7.9825 6.39341 7.78476 6.52856 7.82198 6.57287ZM7.95691 6.73239C7.98017 6.81215 8.33377 6.65706 8.37564 6.57509C8.17093 6.677 7.95225 6.65485 7.95691 6.73018V6.73239ZM9.08982 5.09732C9.09913 5.08624 9.12239 5.09732 9.11774 5.12169C9.11076 5.15493 9.05958 5.32552 8.97118 5.38313C8.90837 5.42744 8.57571 5.49612 8.42682 5.52714C8.34307 5.54265 8.27561 5.58253 8.21978 5.64456C8.2389 5.57104 8.26219 5.49856 8.28957 5.42744C8.31748 5.36097 8.39193 5.29007 8.47102 5.28786C8.61293 5.28121 8.79903 5.27013 8.93629 5.21475C8.99845 5.18978 9.05233 5.14919 9.09215 5.09732H9.08982Z" fill="white" stroke="#BD6B00" stroke-width="0.0664662"/>
<path id="Vector_80" fill-rule="evenodd" clip-rule="evenodd" d="M8.26865 5.77306C8.22212 5.80407 8.17327 5.69108 8.2291 5.58252C8.23143 5.68665 8.3175 5.7221 8.26865 5.77306Z" fill="white" stroke="#BD6B00" stroke-width="0.0664662"/>
<path id="Vector_81" fill-rule="evenodd" clip-rule="evenodd" d="M8.22444 5.87716C8.16163 5.89488 8.14302 5.78854 8.18257 5.70435C8.17559 5.79518 8.2826 5.85057 8.22444 5.87716Z" fill="white" stroke="#BD6B00" stroke-width="0.0664662"/>
<path id="Vector_82" fill-rule="evenodd" clip-rule="evenodd" d="M8.17559 5.96138C8.11511 5.99018 8.09417 5.88162 8.13604 5.80408C8.13139 5.90378 8.22212 5.93479 8.17559 5.95917V5.96138Z" fill="white" stroke="#BD6B00" stroke-width="0.0664662"/>
<path id="Vector_83" fill-rule="evenodd" clip-rule="evenodd" d="M8.20116 5.96804C8.22443 6.03451 8.364 5.90822 8.38727 5.83954C8.30119 5.92151 8.18488 5.91044 8.20116 5.96582V5.96804Z" fill="white" stroke="#BD6B00" stroke-width="0.0664662"/>
<path id="Vector_84" fill-rule="evenodd" clip-rule="evenodd" d="M8.26398 5.86389C8.2919 5.93036 8.46637 5.75312 8.50592 5.67114C8.41985 5.75312 8.24537 5.81515 8.26398 5.86168V5.86389Z" fill="white" stroke="#BD6B00" stroke-width="0.0664662"/>
<path id="Vector_85" fill-rule="evenodd" clip-rule="evenodd" d="M8.29887 5.75976C8.32678 5.8373 8.51521 5.63125 8.57104 5.55814C8.47799 5.6379 8.27793 5.70437 8.29887 5.75976ZM8.30584 5.68443C8.23606 5.67113 8.30817 5.61796 8.39192 5.53156C8.39424 5.62239 8.38029 5.68664 8.30584 5.68443Z" fill="white" stroke="#BD6B00" stroke-width="0.0664662"/>
<path id="Vector_86" fill-rule="evenodd" clip-rule="evenodd" d="M8.41989 5.63123C8.38965 5.60243 8.44548 5.58914 8.51527 5.51381C8.5269 5.56477 8.45013 5.65782 8.41756 5.63123H8.41989ZM8.0942 5.96799C8.05698 5.99015 8.03372 5.91704 8.07792 5.85279C8.08955 5.92368 8.12677 5.94141 8.0942 5.96799ZM8.8898 5.51824C8.96657 5.56255 9.08987 5.38531 9.12244 5.31219C9.05497 5.39639 8.87585 5.47171 8.8898 5.51824Z" fill="white" stroke="#BD6B00" stroke-width="0.0664662"/>
<path id="Vector_87" fill-rule="evenodd" clip-rule="evenodd" d="M8.82232 5.62017C8.86652 5.66448 9.00145 5.54263 9.04797 5.48059C8.97818 5.54041 8.80371 5.54706 8.82232 5.62017Z" fill="white" stroke="#BD6B00" stroke-width="0.0664662"/>
<path id="Vector_88" fill-rule="evenodd" clip-rule="evenodd" d="M8.75021 5.71322C8.76417 5.77526 8.95958 5.63568 9.0061 5.56921C8.92236 5.64676 8.73625 5.64011 8.75021 5.71322Z" fill="white" stroke="#BD6B00" stroke-width="0.0664662"/>
<path id="Vector_89" fill-rule="evenodd" clip-rule="evenodd" d="M8.78044 5.78191C8.81068 5.8373 8.97119 5.69772 9.01074 5.62682C8.91071 5.70658 8.75485 5.72652 8.77811 5.78191H8.78044ZM8.86186 5.5094C8.81301 5.45844 8.83394 5.43407 8.87116 5.35431C8.88977 5.43628 8.92002 5.46952 8.86186 5.5094ZM8.79439 5.60467C8.70134 5.6091 8.79439 5.50275 8.81766 5.41191C8.80835 5.51383 8.84092 5.5958 8.79439 5.60467Z" fill="white" stroke="#BD6B00" stroke-width="0.0664662"/>
<path id="Vector_90" fill-rule="evenodd" clip-rule="evenodd" d="M8.73623 5.68888C8.67342 5.67558 8.6897 5.58918 8.74088 5.48505C8.72925 5.59804 8.79439 5.66229 8.73623 5.68888ZM8.75949 5.85947C8.78276 5.92594 8.96421 5.77085 8.99213 5.70882C8.89907 5.78414 8.74321 5.80852 8.75949 5.85947Z" fill="white" stroke="#BD6B00" stroke-width="0.0664662"/>
<path id="Vector_91" fill-rule="evenodd" clip-rule="evenodd" d="M8.65018 5.96581C8.67577 6.03227 8.86652 5.89491 8.92468 5.81958C8.81069 5.9082 8.63622 5.89934 8.65018 5.96581Z" fill="white" stroke="#BD6B00" stroke-width="0.0664662"/>
<path id="Vector_92" fill-rule="evenodd" clip-rule="evenodd" d="M8.5385 6.07435C8.56874 6.16962 8.76881 6.01675 8.82697 5.94142C8.70134 6.03447 8.52454 6.00789 8.5385 6.07435ZM8.72461 5.83064C8.6711 5.85501 8.65017 5.711 8.68041 5.60687C8.68041 5.71765 8.78974 5.80184 8.72693 5.82843L8.72461 5.83064Z" fill="white" stroke="#BD6B00" stroke-width="0.0664662"/>
<path id="Vector_93" fill-rule="evenodd" clip-rule="evenodd" d="M8.63388 5.94588C8.56874 5.9636 8.58735 5.8063 8.64551 5.70217C8.65249 5.8063 8.69901 5.90157 8.63388 5.94588ZM8.51756 6.05444C8.44777 6.05666 8.4943 5.91929 8.55478 5.84175C8.54548 5.94145 8.57804 6.04115 8.51756 6.05444ZM8.64551 6.11204C8.66877 6.14749 8.71995 6.08324 8.80835 6.0345C8.72925 6.05666 8.6362 6.07881 8.64551 6.11204ZM8.68738 4.94445C8.61759 4.89571 8.6711 4.80709 8.68738 4.7229C8.71064 4.80266 8.76648 4.90901 8.68738 4.94445ZM8.68738 5.06188C8.79207 5.0508 8.77578 4.92673 8.78043 4.84697C8.74787 4.95553 8.66412 4.97326 8.68738 5.06409V5.06188ZM8.67342 5.04637C8.58735 5.04194 8.592 4.94889 8.58735 4.85583C8.63155 4.94224 8.6804 4.95553 8.67342 5.04637Z" fill="white" stroke="#BD6B00" stroke-width="0.0664662"/>
<path id="Vector_94" fill-rule="evenodd" clip-rule="evenodd" d="M8.67574 5.16155C8.74553 5.1682 8.7781 5.10395 8.79205 5.00646C8.72924 5.0973 8.67341 5.0685 8.67574 5.16155ZM8.65247 5.1549C8.5664 5.16598 8.58268 5.07071 8.58268 4.99982C8.6106 5.06628 8.68039 5.08844 8.65247 5.1549Z" fill="white" stroke="#BD6B00" stroke-width="0.0664662"/>
<path id="Vector_95" fill-rule="evenodd" clip-rule="evenodd" d="M8.78741 5.11505C8.78044 5.17709 8.73856 5.28343 8.6711 5.25906C8.64551 5.18373 8.73158 5.16822 8.78741 5.11505Z" fill="white" stroke="#BD6B00" stroke-width="0.0664662"/>
<path id="Vector_96" fill-rule="evenodd" clip-rule="evenodd" d="M8.65247 5.26568C8.68039 5.21251 8.58268 5.18371 8.56407 5.11281C8.55244 5.21473 8.56175 5.28119 8.65247 5.2679V5.26568ZM8.9293 4.61875C8.8758 4.56557 8.92232 4.47695 8.93861 4.39276C8.96187 4.47252 8.99677 4.57887 8.9293 4.61875ZM8.9293 4.72066C9.02236 4.73174 9.04562 4.55006 9.05725 4.47031C9.02468 4.57887 8.91767 4.62539 8.9293 4.72288V4.72066ZM8.91069 4.72066C8.84556 4.68743 8.85951 4.61653 8.8409 4.56557C8.88278 4.62982 8.92465 4.63869 8.91069 4.72066Z" fill="white" stroke="#BD6B00" stroke-width="0.0664662"/>
<path id="Vector_97" fill-rule="evenodd" clip-rule="evenodd" d="M8.93165 4.84028C9.02703 4.84693 9.08519 4.64531 9.08984 4.56555C9.0596 4.67411 8.9177 4.73172 8.92933 4.84028H8.93165ZM8.91072 4.83585C8.81766 4.81591 8.8293 4.7583 8.84325 4.66747C8.8735 4.76052 8.92468 4.74058 8.91072 4.83585Z" fill="white" stroke="#BD6B00" stroke-width="0.0664662"/>
<path id="Vector_98" fill-rule="evenodd" clip-rule="evenodd" d="M8.93163 4.95554C9.03864 4.97327 9.03166 4.80932 9.11774 4.69189C9.04329 4.78052 8.90837 4.89129 8.93163 4.95554ZM8.90837 4.9489C8.82462 4.95333 8.81532 4.8359 8.81997 4.78716C8.8409 4.8359 8.93628 4.88022 8.90604 4.95111L8.90837 4.9489Z" fill="white" stroke="#BD6B00" stroke-width="0.0664662"/>
<path id="Vector_99" fill-rule="evenodd" clip-rule="evenodd" d="M9.09912 4.82922C9.05957 4.95551 9.00142 5.0818 8.93163 5.07293C8.89673 4.99982 8.99909 4.99096 9.09912 4.82922Z" fill="white" stroke="#BD6B00" stroke-width="0.0664662"/>
<path id="Vector_100" fill-rule="evenodd" clip-rule="evenodd" d="M8.90606 5.05302C8.93398 4.99763 8.83627 4.97104 8.81766 4.90015C8.80603 5.00206 8.81533 5.06853 8.90606 5.05302ZM9.07123 4.97326C9.01307 5.08625 8.98748 5.21697 8.90839 5.19703C8.87814 5.10841 8.99679 5.09068 9.07123 4.97326Z" fill="white" stroke="#BD6B00" stroke-width="0.0664662"/>
<path id="Vector_101" fill-rule="evenodd" clip-rule="evenodd" d="M8.89211 5.17705C8.927 5.11502 8.8293 5.09508 8.80371 5.0131C8.79207 5.11945 8.80371 5.19699 8.89211 5.17484V5.17705ZM8.72461 4.41269C8.66878 4.42598 8.6083 4.36617 8.62923 4.27533C8.69437 4.28862 8.72229 4.34623 8.72461 4.41269ZM8.90839 4.36617C8.90374 4.39275 8.86884 4.39497 8.88047 4.3573C8.88916 4.33288 8.88916 4.3064 8.88047 4.28197C8.86927 4.24884 8.86927 4.21319 8.88047 4.18006C8.88978 4.1579 8.92235 4.1712 8.90839 4.18892C8.89443 4.20886 8.89211 4.25096 8.90374 4.2709C8.9177 4.2997 8.91304 4.33736 8.90839 4.36617ZM8.37566 4.72065C8.39893 4.74945 8.44313 4.72951 8.40823 4.68742C8.38032 4.65419 8.33844 4.62538 8.33844 4.58994C8.33379 4.54562 8.3082 4.47916 8.28261 4.45479C8.25702 4.43042 8.22678 4.46365 8.25469 4.48137C8.28494 4.4991 8.30587 4.57886 8.30355 4.60987C8.30587 4.65419 8.35007 4.68742 8.37566 4.72065ZM8.44545 4.66969C8.46872 4.70071 8.50128 4.68077 8.48267 4.63203C8.46639 4.5988 8.46406 4.55449 8.44545 4.53012C8.41754 4.49245 8.37566 4.46143 8.35007 4.43706C8.32216 4.41491 8.30355 4.43706 8.32681 4.45922C8.35533 4.48634 8.38103 4.51602 8.40358 4.54784C8.43615 4.59658 8.42219 4.63646 8.44545 4.66969ZM8.81069 4.51018C8.81301 4.55449 8.77579 4.56335 8.77812 4.50131C8.77812 4.43485 8.8293 4.37281 8.80138 4.27311C8.78277 4.22437 8.78277 4.13353 8.79207 4.08701C8.80138 4.03827 8.8386 4.06928 8.82232 4.10695C8.80836 4.15126 8.82464 4.23102 8.83627 4.27311C8.87117 4.39275 8.80836 4.45036 8.81301 4.51018H8.81069ZM8.71065 4.26647C8.71531 4.30856 8.75253 4.31078 8.7409 4.25539C8.73159 4.21108 8.73159 4.17563 8.7409 4.13796C8.75485 4.09144 8.7502 4.01168 8.7409 3.97845C8.72926 3.943 8.69437 3.96294 8.70833 3.98952C8.72457 4.0314 8.727 4.07701 8.71531 4.12024C8.70135 4.16455 8.70367 4.22659 8.71065 4.26868V4.26647ZM9.07356 5.08843C9.05495 5.10837 9.02703 5.09508 9.0503 5.06628C9.07356 5.04412 9.06658 5.03969 9.08054 5.0131C9.0945 4.98209 9.09217 4.96658 9.10845 4.94664C9.12474 4.92448 9.14568 4.94664 9.13172 4.96215C9.11311 4.9843 9.11776 4.99759 9.10845 5.01753C9.08519 5.05077 9.09217 5.06849 9.07356 5.08843ZM8.59899 5.63346C8.57056 5.64842 8.54638 5.66976 8.52854 5.69562C8.51071 5.72149 8.49976 5.7511 8.49663 5.7819C8.4942 5.83707 8.47827 5.89093 8.45011 5.9392C8.49663 5.92812 8.5199 5.85722 8.52687 5.78854C8.53385 5.71765 8.5734 5.68884 8.59666 5.63346H8.59899ZM8.48035 5.76417C8.4408 5.83285 8.38729 5.85944 8.38264 5.9104C8.37799 5.97022 8.37334 5.97243 8.35705 6.03004C8.40358 6.01896 8.41521 6.01453 8.42684 5.92591C8.43382 5.86387 8.48733 5.82178 8.48035 5.76417Z" fill="white" stroke="#BD6B00" stroke-width="0.0664662"/>
<path id="Vector_102" fill-rule="evenodd" clip-rule="evenodd" d="M7.25671 6.40224C7.23345 6.44212 7.21019 6.50194 7.16366 6.49086C7.16366 6.46206 7.21251 6.4399 7.25671 6.40224ZM7.18692 6.41553C7.10085 6.45098 7.02408 6.44212 7.01245 6.49529C7.0962 6.50415 7.12877 6.47313 7.18925 6.41553H7.18692ZM7.56146 6.13416C7.50366 6.17695 7.46268 6.23705 7.44515 6.30475C7.42639 6.366 7.39817 6.42424 7.3614 6.47756C7.4219 6.43885 7.46568 6.38063 7.48469 6.31361C7.50098 6.24715 7.52191 6.19619 7.56146 6.13637V6.13416ZM7.48935 6.13416C7.42421 6.1829 7.36372 6.2405 7.34511 6.30918C7.3265 6.37343 7.31487 6.42218 7.27067 6.48643C7.34046 6.44433 7.36605 6.3823 7.38699 6.31361C7.40327 6.24715 7.44515 6.19841 7.48935 6.13637V6.13416ZM7.27532 6.29589C7.27624 6.29035 7.27511 6.28468 7.27215 6.27984C7.26918 6.275 7.26455 6.27127 7.25904 6.2693C7.23914 6.26262 7.21896 6.2567 7.19856 6.25158C7.17529 6.24493 7.16134 6.26044 7.16134 6.27152V6.31583C7.16134 6.33134 7.16599 6.33355 7.17762 6.33577C7.1939 6.33798 7.21717 6.3402 7.23345 6.35128C7.24741 6.36014 7.26137 6.35349 7.26835 6.3402L7.27532 6.29589ZM7.02874 6.29589C7.02874 6.2826 7.03339 6.27152 7.04269 6.2693C7.06035 6.26234 7.07945 6.25931 7.09853 6.26044C7.12179 6.26044 7.12411 6.26487 7.12411 6.27373V6.32026C7.12411 6.33799 7.12411 6.33799 7.11481 6.34242C7.09852 6.34242 7.07294 6.34242 7.05665 6.35571C7.04502 6.36236 7.03339 6.35571 7.03106 6.34242L7.02874 6.29589Z" fill="white"/>
</g>
<g id="Group_3">
<path id="Vector_103" fill-rule="evenodd" clip-rule="evenodd" d="M7.66386 6.91852C7.66386 6.9451 7.66851 6.96726 7.68712 6.9872C7.5807 6.95658 7.46608 6.96529 7.36609 7.01157C7.32422 7.02929 7.27304 6.98941 7.32189 6.95175C7.39168 6.90079 7.54755 6.9296 7.66386 6.91852ZM6.32623 6.91852C6.32825 6.94105 6.32508 6.96374 6.31692 6.98498C6.41928 6.94732 6.52862 6.98055 6.6333 7.02043C6.70309 7.04923 6.71007 6.99828 6.69844 6.98277C6.68557 6.96424 6.66837 6.9488 6.64819 6.93765C6.62801 6.92651 6.6054 6.91996 6.58212 6.91852H6.32623ZM6.41463 6.43774C6.38439 6.42667 6.35182 6.43774 6.32158 6.46876C6.22154 6.56181 6.1029 6.65265 6.00752 6.72577C5.97263 6.75457 5.93773 6.80774 6.08662 6.8587C6.0936 6.86313 6.20293 6.90301 6.27272 6.90301C6.30297 6.90301 6.30297 6.94289 6.29599 6.95397C6.28435 6.97612 6.29366 6.98498 6.2704 7.00492C6.24481 7.02708 6.2704 7.05145 6.29366 7.03373C6.37741 6.96283 6.51699 7.00935 6.64959 7.04923C6.68215 7.0581 6.73799 7.05588 6.73799 7.01379C6.73799 6.96947 6.77288 6.93846 6.79382 6.93624C6.84965 6.9451 7.1195 6.94732 7.20092 6.93846C7.24745 6.93181 7.2521 7.00271 7.27769 7.02708C7.2963 7.04702 7.36377 7.05145 7.41262 7.03151C7.50567 6.99163 7.64525 6.99163 7.70341 7.03151C7.72667 7.04702 7.74761 7.03151 7.73365 7.016C7.71504 6.99385 7.71737 6.98055 7.70806 6.96283C7.6848 6.91852 7.70341 6.90966 7.72667 6.90744C7.98257 6.87421 8.06631 6.79223 7.98722 6.72355C7.88486 6.63936 7.7732 6.55295 7.67549 6.45325C7.64758 6.42667 7.62897 6.41559 7.57546 6.43774C7.39021 6.51774 7.1902 6.56216 6.9869 6.56846C6.78995 6.55635 6.59652 6.51291 6.41463 6.43996V6.43774Z" fill="white"/>
<path id="Vector_104" fill-rule="evenodd" clip-rule="evenodd" d="M7.61967 6.45105L7.58244 6.45991C7.37308 6.53081 7.18232 6.57955 6.98458 6.57955C6.7915 6.57955 6.58911 6.52638 6.40533 6.45548C6.39402 6.45177 6.38174 6.45177 6.37043 6.45548C6.3588 6.4577 6.34717 6.46434 6.34019 6.47099C6.25422 6.55288 6.1625 6.62913 6.06568 6.69919C6.0494 6.71027 6.05173 6.73907 6.07732 6.74793C6.2704 6.8144 6.45883 6.93625 6.99854 6.93182C7.54522 6.92739 7.73831 6.80775 7.91046 6.75236C7.92209 6.74793 7.93372 6.74129 7.9407 6.73021C7.94236 6.72757 7.94342 6.72463 7.94382 6.72158C7.94422 6.71853 7.94395 6.71543 7.94302 6.71248C7.94002 6.70555 7.93522 6.69945 7.92907 6.69476C7.82903 6.61722 7.72435 6.55518 7.65456 6.46434C7.64758 6.45327 7.63362 6.45105 7.61967 6.45327V6.45105ZM7.61967 6.46213C7.6313 6.46213 7.64293 6.46213 7.64526 6.46877C7.71505 6.56404 7.82438 6.62386 7.92209 6.70141L7.93139 6.71691C7.93203 6.71831 7.93236 6.71982 7.93236 6.72135C7.93236 6.72287 7.93203 6.72438 7.93139 6.72578C7.92907 6.73242 7.91743 6.73907 7.90813 6.74129C7.73133 6.79889 7.5429 6.91853 7.00086 6.92296C6.46116 6.92739 6.27505 6.80554 6.08197 6.73907C6.06336 6.73021 6.06569 6.71248 6.07266 6.70805C6.17037 6.63716 6.26342 6.5574 6.34717 6.47764C6.35438 6.47121 6.36318 6.46663 6.37276 6.46434H6.40068C6.58453 6.54042 6.78189 6.58252 6.98225 6.58841C7.18464 6.58841 7.37773 6.53967 7.5871 6.47099C7.59833 6.46676 7.61004 6.46378 7.62199 6.46213H7.61967Z" fill="#BD6B00"/>
<path id="Vector_105" fill-rule="evenodd" clip-rule="evenodd" d="M6.29599 3.10778C6.29599 3.07676 6.34252 3.07454 6.33786 3.11664C6.33089 3.1676 6.44255 3.30053 6.45185 3.3825C6.45883 3.43789 6.41696 3.48442 6.37741 3.51544C6.3546 3.53082 6.32781 3.53998 6.29994 3.54194C6.27206 3.54389 6.24415 3.53856 6.21922 3.52651C6.19829 3.50879 6.17967 3.4534 6.19596 3.43124C6.20061 3.4246 6.2262 3.51322 6.28203 3.51322C6.3588 3.51322 6.42161 3.45783 6.42161 3.40909C6.42626 3.3249 6.29832 3.19197 6.29599 3.10778ZM6.51699 3.31604C6.53095 3.30717 6.54956 3.34484 6.5356 3.3537C6.52397 3.36035 6.50071 3.3249 6.51699 3.31382V3.31604ZM6.55189 3.23849C6.54491 3.24292 6.53328 3.23849 6.5356 3.23406C6.55796 3.20448 6.58647 3.17959 6.61935 3.16095C6.62865 3.15652 6.64261 3.16981 6.63796 3.17646C6.61423 3.20273 6.58488 3.22388 6.55189 3.23849ZM6.845 3.01694C6.85198 3.00365 6.89385 2.98814 6.90549 2.97927C6.91479 2.9682 6.91944 2.98814 6.91479 2.99478C6.90781 3.01029 6.87059 3.03245 6.85431 3.03466C6.84733 3.03466 6.84035 3.0258 6.845 3.01915V3.01694ZM6.94503 3.02359C6.95728 2.99412 6.97732 2.96817 7.00319 2.94826C7.01482 2.94161 7.03343 2.94826 7.02878 2.95712C7.01298 2.98642 6.9898 3.01154 6.96132 3.03023C6.95434 3.03688 6.94271 3.03023 6.94503 3.02359ZM6.85896 3.0834C6.85198 3.08784 6.85663 3.09891 6.86129 3.10113C6.87524 3.10556 6.89618 3.10556 6.90781 3.10113C6.92177 3.09227 6.91479 3.03688 6.89618 3.06568C6.88222 3.0834 6.87292 3.07897 6.85896 3.0834ZM6.68914 3.20748C6.6589 3.18532 6.69844 3.1543 6.72869 3.17646C6.7915 3.22077 6.63563 3.39358 6.55189 3.47334C6.5356 3.48885 6.52164 3.45118 6.54258 3.43124C6.60315 3.38292 6.6557 3.32615 6.69844 3.26286C6.70775 3.25179 6.71473 3.22741 6.68914 3.20748ZM7.04507 3.06125C7.04739 3.03909 7.00784 3.06125 7.00784 3.03245C7.00784 3.01694 7.05204 3.00586 7.07066 3.02359C7.1009 3.0546 7.07763 3.10556 7.02413 3.10999C6.98225 3.10999 6.90781 3.16981 6.91944 3.18089C6.93108 3.1964 7.04507 3.20526 7.11253 3.1964C7.1544 3.18975 7.1451 3.2252 7.10322 3.22963C7.06135 3.23406 7.02878 3.22963 6.99156 3.24292C6.94503 3.254 6.92642 3.30939 6.90083 3.33155C6.89618 3.33598 6.88222 3.31382 6.88688 3.30496C6.90549 3.27837 6.9334 3.23849 6.96597 3.2252C6.98458 3.21855 6.91014 3.21634 6.88688 3.20969C6.86827 3.20526 6.87292 3.18089 6.8799 3.1676C6.8892 3.14987 6.95899 3.08119 6.98923 3.0834C7.01482 3.0834 7.04274 3.07676 7.04507 3.06125ZM7.16138 3.06568C7.17534 3.0546 7.18464 3.03688 7.19628 3.0258C7.20326 3.01915 7.21721 3.0258 7.21489 3.04352C7.21256 3.05903 7.19162 3.07011 7.17999 3.08119C7.16836 3.08784 7.15673 3.07233 7.16371 3.06568H7.16138ZM7.31259 3.01472C7.33353 3.01472 7.33586 3.05017 7.31725 3.0546C7.30329 3.05903 7.29398 3.01694 7.31259 3.01472ZM7.26374 3.1255C7.26374 3.15873 7.28002 3.15652 7.31027 3.1543C7.34051 3.1543 7.3661 3.1543 7.3661 3.12772C7.3661 3.09891 7.34981 3.07233 7.34283 3.09227C7.34051 3.10999 7.33586 3.14101 7.32422 3.12772C7.31492 3.11664 7.31957 3.11442 7.30096 3.13215C7.28933 3.14322 7.28933 3.12772 7.28235 3.11885C7.2777 3.11221 7.26374 3.12328 7.26374 3.12772V3.1255ZM7.04972 3.28502C7.04274 3.32711 7.04972 3.38472 7.07066 3.38472C7.09857 3.38472 7.1544 3.2961 7.18232 3.24735C7.1986 3.22077 7.22419 3.21634 7.21256 3.24514C7.19628 3.28723 7.1986 3.37807 7.21256 3.40466C7.22187 3.41795 7.28235 3.39137 7.29166 3.37143C7.31027 3.33376 7.29398 3.26508 7.30096 3.22298C7.30329 3.1964 7.3312 3.18975 7.32888 3.21634C7.32521 3.27166 7.32444 3.32711 7.32655 3.3825C7.32655 3.40466 7.39401 3.43568 7.40332 3.36921C7.40797 3.32933 7.43123 3.28723 7.40332 3.24292C7.38471 3.21412 7.42891 3.21634 7.45217 3.25622C7.46846 3.2828 7.43821 3.32711 7.44054 3.36035C7.44054 3.41352 7.39867 3.44454 7.36842 3.44454C7.34051 3.44454 7.3219 3.41131 7.29863 3.41131C7.27537 3.41131 7.24746 3.44897 7.22884 3.44675C7.1451 3.44232 7.1893 3.32933 7.16371 3.32711C7.13579 3.32711 7.10555 3.43789 7.07066 3.43568C7.03809 3.43124 7.00087 3.34262 7.01715 3.30717C7.02878 3.27173 7.05204 3.26286 7.04972 3.28502ZM7.44287 3.10778C7.40332 3.08562 7.44287 3.0258 7.4638 3.04574C7.50102 3.09005 7.53824 3.18975 7.56616 3.19861C7.58244 3.20304 7.58012 3.12328 7.59175 3.08784C7.60106 3.05903 7.63362 3.0679 7.62897 3.10334C7.62665 3.11442 7.58245 3.24514 7.5871 3.24957C7.61808 3.30486 7.64378 3.3627 7.66387 3.42238C7.67085 3.44897 7.63828 3.43124 7.63362 3.42681C7.61269 3.3958 7.57779 3.2828 7.57779 3.28945L7.53825 3.46005C7.53359 3.4822 7.4987 3.47777 7.508 3.43789C7.51498 3.40687 7.56151 3.254 7.55918 3.24735C7.53254 3.19273 7.49268 3.14489 7.44287 3.10778Z" fill="white"/>
<path id="Vector_106" fill-rule="evenodd" clip-rule="evenodd" d="M7.51267 3.47555C7.50337 3.47555 7.48476 3.49771 7.54059 3.50878C7.6127 3.52208 7.69412 3.49771 7.71739 3.42902C7.74763 3.34705 7.76391 3.2695 7.7802 3.2407C7.79881 3.20747 7.82207 3.20968 7.80346 3.16094C7.79183 3.12328 7.76857 3.13436 7.76391 3.1543C7.75228 3.20525 7.70343 3.37585 7.68715 3.40465C7.65923 3.46226 7.60107 3.48441 7.51267 3.47555Z" fill="white"/>
<path id="Vector_107" fill-rule="evenodd" clip-rule="evenodd" d="M7.66151 3.20523C7.6522 3.18972 7.63359 3.20523 7.63825 3.22074C7.63936 3.227 7.64278 3.23267 7.6479 3.23673C7.65302 3.2408 7.6595 3.24298 7.66616 3.24289C7.68245 3.24289 7.71734 3.24511 7.71734 3.22074C7.71734 3.20301 7.70106 3.18751 7.69175 3.20745C7.68012 3.22517 7.66849 3.22295 7.66151 3.20745V3.20523ZM7.67779 3.13876C7.67314 3.14319 7.67779 3.16313 7.68477 3.16092C7.7115 3.1611 7.73787 3.15501 7.76154 3.14319C7.76619 3.13876 7.76387 3.12769 7.75689 3.12769C7.73363 3.12769 7.6964 3.12769 7.67779 3.13876ZM7.88251 3.18972C7.90112 3.16313 7.94765 3.16092 7.92904 3.19858C7.88126 3.28994 7.8324 3.38078 7.78248 3.47109C7.76387 3.50211 7.74991 3.4866 7.76387 3.46223C7.78015 3.43121 7.87786 3.19637 7.88251 3.18972Z" fill="white"/>
<path id="Vector_108" fill-rule="evenodd" clip-rule="evenodd" d="M7.7034 3.51545C7.69874 3.49772 7.6685 3.47113 7.67315 3.51988C7.67781 3.60407 7.8011 3.57748 7.836 3.54868C7.87089 3.51988 7.84297 3.64395 7.88718 3.65724C7.91044 3.66389 7.95696 3.63287 7.98023 3.60407C8.04304 3.52652 8.08491 3.41353 8.14307 3.3382C8.16633 3.30718 8.13144 3.28503 8.11981 3.3094C8.06398 3.39359 7.99884 3.5664 7.92672 3.61071C7.86856 3.64616 7.88717 3.5664 7.88485 3.53982C7.88252 3.52209 7.85926 3.49551 7.82902 3.51988C7.80468 3.53843 7.77408 3.54788 7.74294 3.54646C7.72666 3.54646 7.71037 3.54646 7.7034 3.51545Z" fill="white"/>
<path id="Vector_109" fill-rule="evenodd" clip-rule="evenodd" d="M7.92208 3.36033C7.92208 3.35369 7.89649 3.35147 7.89882 3.37584C7.89882 3.39357 7.92208 3.398 7.92441 3.398C7.95931 3.37141 7.91743 3.3847 7.92208 3.35812V3.36033ZM7.86858 3.45782C7.8616 3.45782 7.85462 3.47997 7.87323 3.48219L7.96396 3.47776C7.97326 3.47776 7.97792 3.45782 7.95465 3.46003C7.92674 3.46003 7.89184 3.45339 7.86858 3.46003V3.45782ZM6.42626 3.09004C6.43789 3.09004 6.46348 3.12105 6.46116 3.13213C6.46116 3.13656 6.43324 3.13213 6.42626 3.12548C6.41928 3.11884 6.42161 3.09004 6.42626 3.09004ZM6.30297 3.32045C6.2797 3.33375 6.30762 3.35812 6.32623 3.34704C6.39137 3.30494 6.48907 3.26285 6.51233 3.18087C6.51931 3.15429 6.5449 3.11219 6.57049 3.10333C6.59376 3.09225 6.63098 3.14542 6.65424 3.10333C6.6682 3.08117 6.71705 3.11884 6.72868 3.09447C6.74264 3.06567 6.73566 3.05016 6.73566 3.01914C6.73566 3.00141 6.71938 2.99698 6.70775 3.02579C6.70309 3.03908 6.70775 3.05237 6.70542 3.06123C6.70077 3.06567 6.69146 3.0701 6.68216 3.06567C6.6775 3.06123 6.68216 3.05016 6.6682 3.04351C6.66355 3.04351 6.65424 3.04129 6.64959 3.04794C6.6333 3.07674 6.62632 3.10333 6.60073 3.0701C6.5798 3.04794 6.56817 3.00141 6.55421 3.06345C6.54956 3.08561 6.51466 3.11662 6.49372 3.11662C6.46813 3.11662 6.47511 3.05016 6.41928 3.06123C6.38904 3.06788 6.39137 3.12105 6.39602 3.13878C6.403 3.16758 6.48907 3.14764 6.48209 3.16536C6.46813 3.22518 6.37973 3.285 6.30297 3.32045ZM5.77489 3.6129C5.77257 3.62398 5.78652 3.65057 5.80048 3.65278C5.81444 3.65278 5.82374 3.62398 5.81909 3.6129C5.81444 3.60626 5.77722 3.60626 5.77489 3.6129ZM5.85166 3.72147C5.84236 3.7126 5.81444 3.73697 5.8377 3.7547C5.84933 3.76578 5.89586 3.77907 5.90749 3.75913C5.9261 3.73254 5.89121 3.63728 5.90749 3.6262C5.91912 3.61512 5.97263 3.68823 6.00054 3.69266C6.06336 3.70153 6.04707 3.59075 6.11686 3.59961C6.16106 3.60404 6.16571 3.55087 6.15873 3.51542C6.15408 3.48219 6.09825 3.43566 6.07266 3.41351C6.04009 3.38692 6.02381 3.43566 6.04474 3.44895C6.07266 3.47111 6.12151 3.5132 6.12849 3.53979C6.13082 3.55308 6.09592 3.57967 6.08197 3.57302C6.0494 3.5553 6.02148 3.4844 5.99357 3.46889C5.98426 3.46446 5.961 3.47554 5.9703 3.4977C5.98426 3.52207 6.04009 3.55752 6.04242 3.5841C6.04474 3.60626 6.01916 3.655 6.00054 3.655C5.97961 3.655 5.93076 3.59518 5.91447 3.56638C5.90517 3.5553 5.87958 3.5553 5.87492 3.57524C5.87341 3.61616 5.87732 3.6571 5.88656 3.69709C5.89121 3.73254 5.86562 3.73476 5.85166 3.72147ZM5.75861 3.53093C5.7493 3.53979 5.77722 3.55752 5.78187 3.55308C5.79118 3.54422 5.83072 3.50213 5.82374 3.48662C5.81677 3.47332 5.76326 3.44231 5.75395 3.45782C5.73767 3.48219 5.80513 3.49548 5.7935 3.50213C5.78049 3.5101 5.76874 3.5198 5.75861 3.53093ZM5.85399 3.34482C5.85399 3.34482 5.8726 3.40021 5.88656 3.37584C5.89586 3.36033 5.85399 3.34482 5.85399 3.34482ZM5.8819 3.43345C5.87725 3.43345 5.85864 3.44895 5.87027 3.4556C5.88888 3.46446 5.93773 3.47333 5.9261 3.44009C5.91912 3.42015 6.00054 3.44009 5.97961 3.38692C5.9712 3.37052 5.95728 3.35727 5.94006 3.34925C5.93075 3.34925 5.90517 3.36033 5.92145 3.36919C5.93308 3.37363 5.96798 3.39357 5.95634 3.40686C5.94006 3.42015 5.93075 3.40021 5.91214 3.40464C5.90284 3.40464 5.90982 3.43123 5.90284 3.43788C5.90284 3.44231 5.88655 3.42901 5.8819 3.43123V3.43345ZM6.00985 3.22297C5.9955 3.23426 5.98565 3.2499 5.98193 3.26728C5.98193 3.27171 5.98891 3.28057 5.99357 3.27836C6.00791 3.268 6.01783 3.25305 6.02148 3.23626C6.02148 3.22962 6.01683 3.21854 6.00985 3.22297ZM6.07499 3.21632C6.05638 3.19417 6.09825 3.15872 6.11453 3.20524C6.12617 3.23405 6.24248 3.38027 6.26574 3.42901C6.28436 3.46225 6.26574 3.47554 6.24481 3.45117C6.18665 3.38027 6.1378 3.29165 6.07499 3.21632ZM6.19596 3.21854C6.21689 3.19638 6.25877 3.15207 6.24713 3.12992C6.23783 3.10776 6.21224 3.10776 6.20759 3.11441C6.18432 3.14321 6.2262 3.13656 6.21922 3.14542C6.20759 3.16758 6.19596 3.18087 6.18898 3.20303C6.18665 3.20968 6.1913 3.22297 6.19596 3.21854ZM8.00583 3.28944C7.98955 3.27836 8.01979 3.22297 8.04073 3.24512C8.09423 3.30494 8.11982 3.50213 8.13611 3.65057C8.13611 3.65057 8.11284 3.67051 8.11284 3.66608C8.11284 3.58853 8.07795 3.34704 8.00583 3.28944ZM6.77056 3.0989C6.75195 3.05902 6.79615 3.04573 6.80312 3.07231C6.83337 3.20081 6.90781 3.2983 6.96597 3.3847C6.98225 3.41129 6.96597 3.42901 6.92642 3.40243C6.8985 3.3847 6.86826 3.31602 6.85663 3.31381C6.82871 3.30937 6.76823 3.42458 6.64494 3.39135C6.61237 3.38249 6.61469 3.29165 6.61237 3.25177C6.61237 3.23183 6.63563 3.22962 6.63563 3.25177C6.63563 3.28943 6.63563 3.36698 6.68448 3.37141C6.72636 3.37141 6.81476 3.31824 6.83337 3.27393C6.85198 3.22962 6.78917 3.14321 6.77056 3.09668V3.0989Z" fill="white"/>
<path id="Vector_110" fill-rule="evenodd" clip-rule="evenodd" d="M8.03841 3.63508C8.04772 3.60849 8.18032 3.3958 8.19893 3.34928C8.20823 3.32712 8.24545 3.38916 8.20823 3.42239C8.17566 3.44898 8.08028 3.59963 8.06167 3.65281C8.05237 3.67496 8.02911 3.66388 8.03841 3.63508Z" fill="white"/>
<path id="Vector_111" fill-rule="evenodd" clip-rule="evenodd" d="M8.26406 3.43348C8.28732 3.34486 8.3478 3.44678 8.2943 3.49552C8.2152 3.57085 8.18961 3.71486 8.06167 3.73701C8.0291 3.74366 7.96861 3.7215 7.95 3.70821C7.94302 3.70378 7.95466 3.67276 7.97559 3.68827C8.00584 3.71043 8.07097 3.71707 8.10587 3.69049C8.18188 3.61991 8.23653 3.53113 8.26406 3.43348ZM6.93805 3.71486C6.93108 3.7215 6.91479 3.7215 6.91247 3.73037C6.90549 3.76138 6.91247 3.77911 6.90549 3.81012C6.89851 3.84114 6.87524 3.84114 6.87757 3.81677C6.87757 3.78575 6.90781 3.73923 6.88688 3.73701C6.87292 3.7348 6.86361 3.71707 6.87757 3.70821C6.90316 3.6927 6.91712 3.69492 6.9334 3.69935C6.94038 3.70156 6.94271 3.71043 6.93805 3.71486Z" fill="white"/>
<path id="Vector_112" fill-rule="evenodd" clip-rule="evenodd" d="M6.91942 3.67053C6.88685 3.70155 6.85428 3.71263 6.82404 3.74808C6.81008 3.76137 6.81241 3.78131 6.8031 3.80125C6.79613 3.82119 6.77054 3.82341 6.76356 3.82119C6.75193 3.81233 6.75425 3.77688 6.74029 3.7946C6.72634 3.81454 6.71936 3.83892 6.70075 3.83892C6.68446 3.83892 6.65422 3.80568 6.6705 3.80568C6.72401 3.79904 6.72168 3.76137 6.74029 3.75694C6.76356 3.75472 6.76356 3.79017 6.77984 3.78353C6.78915 3.7791 6.79613 3.737 6.80776 3.72592C6.84265 3.69047 6.87057 3.67275 6.90779 3.64616C6.92407 3.63287 6.93803 3.65724 6.91942 3.67275V3.67053ZM7.04271 3.78131C7.0148 3.78574 7.01945 3.81898 7.02876 3.82119C7.04039 3.82784 7.06133 3.83005 7.0683 3.79239C7.07296 3.77688 7.07528 3.86993 7.11018 3.83448C7.13344 3.81233 7.18229 3.83891 7.20323 3.81233C7.21952 3.79239 7.22649 3.7791 7.21254 3.75251C7.20788 3.74586 7.18927 3.74808 7.18927 3.76802C7.18927 3.78574 7.17764 3.80568 7.15903 3.80347C7.14973 3.80125 7.16368 3.76137 7.15438 3.75029C7.1522 3.74826 7.14928 3.74713 7.14624 3.74713C7.14319 3.74713 7.14027 3.74826 7.13809 3.75029C7.13112 3.75916 7.14507 3.79904 7.12414 3.80347C7.09622 3.8079 7.11018 3.77688 7.10087 3.77245C7.06133 3.75472 7.059 3.77688 7.04271 3.7791V3.78131ZM7.25208 3.71484C7.27302 3.71041 7.26604 3.71041 7.29861 3.68604C7.31024 3.67718 7.31257 3.70377 7.31024 3.71484C7.31024 3.73035 7.28698 3.71928 7.28 3.73478C7.27069 3.75472 7.27535 3.80125 7.27069 3.81897C7.27069 3.82784 7.25208 3.82784 7.25208 3.81897C7.24743 3.79682 7.25441 3.77466 7.25208 3.74586C7.25208 3.737 7.24045 3.72149 7.25208 3.71706V3.71484ZM7.13577 3.65946C7.13111 3.6794 7.13112 3.6949 7.13112 3.71041C7.13112 3.72149 7.15438 3.71484 7.15438 3.71263C7.15438 3.6949 7.15903 3.66832 7.15438 3.66167C7.14973 3.65946 7.13809 3.65502 7.13577 3.65946Z" fill="white"/>
<path id="Vector_113" fill-rule="evenodd" clip-rule="evenodd" d="M6.98922 3.45343L6.95665 3.5775L6.91012 3.49331V3.57972L6.80777 3.46451L6.84266 3.58858L6.74961 3.51325L6.80079 3.59744L6.63794 3.49774L6.7403 3.61295L6.61003 3.55091L6.70308 3.62624L6.49371 3.55091L6.6961 3.64618C6.78805 3.60632 6.88822 3.58664 6.98922 3.58858C7.10321 3.58858 7.20557 3.61073 7.28001 3.64618L7.48472 3.55091L7.27536 3.62624L7.36841 3.55091L7.24046 3.61295L7.34049 3.49774L7.17765 3.59744L7.22883 3.51325L7.13578 3.58636L7.17067 3.46451L7.07064 3.57972V3.49331L7.02411 3.5775L6.98922 3.45343Z" fill="white"/>
</g>
</g>
<path id="Vector_114" d="M6.80966 6.14585L6.8031 6.20002H6.79435L6.79216 6.16252C6.78958 6.15111 6.78592 6.13996 6.78123 6.12918C6.77849 6.11984 6.77483 6.11077 6.77029 6.1021L6.74841 6.07293L6.76591 6.0271C6.78052 6.04131 6.79171 6.05837 6.79873 6.0771C6.80639 6.09855 6.81009 6.12111 6.80966 6.14377M6.96279 6.05627C6.96279 6.07085 6.95841 6.08127 6.95185 6.08752C6.94748 6.09377 6.93873 6.10002 6.92341 6.1021L6.93216 6.13335C6.93435 6.14716 6.93435 6.16121 6.93216 6.17502C6.93171 6.18406 6.93098 6.19309 6.92998 6.2021H6.92123C6.92125 6.19303 6.92052 6.18397 6.91904 6.17502C6.91826 6.16796 6.9168 6.16098 6.91466 6.15418L6.90591 6.13335C6.90158 6.12328 6.89646 6.11353 6.8906 6.10418L6.86873 6.06877L6.88185 6.0271L6.90373 6.04793C6.91029 6.0521 6.91685 6.05418 6.9256 6.05418C6.9431 6.05418 6.95185 6.04585 6.95185 6.0271H6.9606V6.05627M7.1006 6.15627L7.08966 6.20002C7.08091 6.20002 7.07654 6.19377 7.07216 6.18543L7.06341 6.15835C7.06183 6.14661 7.0611 6.13477 7.06123 6.12293C7.05415 6.12521 7.0468 6.12661 7.03935 6.1271C7.02914 6.12757 7.01908 6.12462 7.01091 6.11877C7.00758 6.11629 7.00486 6.11313 7.00297 6.10953C7.00108 6.10592 7.00006 6.10196 6.99998 6.09793C6.99998 6.07918 7.00654 6.06252 7.01529 6.05002C7.02623 6.03543 7.03716 6.02918 7.0481 6.0271C7.05904 6.0271 7.0656 6.02918 7.06998 6.03543C7.07371 6.04109 7.07596 6.04752 7.07654 6.05418V6.09585C7.07654 6.1146 7.07873 6.1271 7.0831 6.13543C7.0831 6.14168 7.08966 6.14793 7.1006 6.15627ZM7.05685 6.08335C7.05685 6.07085 7.05029 6.06668 7.03935 6.06668C7.03485 6.06606 7.03027 6.06679 7.02623 6.06877C7.02185 6.07085 7.02185 6.07293 7.02185 6.07502C7.02185 6.08127 7.02841 6.08543 7.04373 6.08543L7.05685 6.08335ZM7.24716 6.14585L7.2406 6.20002C7.22966 6.19168 7.21873 6.17918 7.20998 6.15835C7.19798 6.13069 7.18846 6.10212 7.18154 6.07293C7.17062 6.11178 7.15748 6.15004 7.14216 6.18752C7.13732 6.19336 7.13139 6.19831 7.12466 6.2021V6.15002C7.13779 6.13543 7.14435 6.1271 7.14654 6.11877C7.15389 6.1077 7.15977 6.0958 7.16404 6.08335L7.17498 6.0271H7.18373L7.20341 6.08335C7.20779 6.09585 7.21435 6.10835 7.2231 6.11668L7.24498 6.14585" fill="white"/>
<path id="Vector_115" d="M7.67377 6.65417C7.68252 6.6625 7.68689 6.67083 7.68908 6.67917L7.69783 6.7125L7.68033 6.71458C7.67433 6.7034 7.66699 6.69291 7.65846 6.68333C7.65082 6.67467 7.64279 6.66633 7.63439 6.65833C7.62227 6.64763 7.60987 6.63721 7.59721 6.62708C7.5831 6.61475 7.56851 6.60294 7.55346 6.59167C7.54471 6.5875 7.54033 6.58333 7.54033 6.58125C7.53684 6.57624 7.5346 6.57054 7.53377 6.56458C7.53147 6.55359 7.53001 6.54245 7.52939 6.53125L7.58846 6.57708C7.60728 6.5917 7.62552 6.60699 7.64314 6.62292L7.67377 6.65417ZM7.46596 6.53333L7.46158 6.575H7.39377L7.40033 6.53333H7.46596ZM7.64971 6.71875L7.48346 6.76667L7.45502 6.725L7.59721 6.68333L7.58189 6.66667C7.57625 6.66132 7.56956 6.65707 7.56221 6.65417C7.56227 6.65802 7.56152 6.66184 7.56002 6.66542C7.55852 6.66899 7.55629 6.67225 7.55346 6.675C7.54763 6.68114 7.54002 6.6855 7.53158 6.6875C7.5187 6.69087 7.50509 6.69087 7.49221 6.6875C7.48112 6.68627 7.47095 6.68105 7.46377 6.67292C7.45405 6.6594 7.44872 6.64346 7.44846 6.62708C7.44846 6.60625 7.45502 6.59375 7.46814 6.58958C7.48346 6.58542 7.50752 6.58958 7.53377 6.60417C7.55954 6.61558 7.58205 6.63273 7.59939 6.65417L7.64971 6.71875ZM7.52283 6.63542C7.51726 6.63271 7.51139 6.63062 7.50533 6.62917C7.50104 6.62801 7.4965 6.62801 7.49221 6.62917C7.49002 6.6294 7.48791 6.63008 7.48602 6.63116C7.48414 6.63223 7.48251 6.63369 7.48127 6.63542C7.47985 6.63722 7.47908 6.63941 7.47908 6.64167C7.47908 6.64392 7.47985 6.64611 7.48127 6.64792L7.49221 6.65208H7.50533L7.51408 6.64583L7.52283 6.63542ZM7.34783 6.60208L7.33689 6.64375L7.26689 6.6375L7.27783 6.59583L7.34564 6.60208M7.50971 6.7625L7.47252 6.77083C7.4602 6.77274 7.44765 6.77274 7.43533 6.77083C7.42389 6.77036 7.41269 6.76752 7.40252 6.7625C7.39596 6.77292 7.38502 6.78333 7.36971 6.7875C7.35859 6.79294 7.34684 6.79713 7.33471 6.8L7.30846 6.80625L7.28658 6.76458L7.31064 6.75833C7.32033 6.75623 7.32983 6.75345 7.33908 6.75L7.35877 6.73958L7.33689 6.72917H7.32158C7.32015 6.72881 7.31864 6.72881 7.31721 6.72917C7.31511 6.73077 7.31358 6.73296 7.31283 6.73542H7.30189C7.29096 6.71875 7.28877 6.70417 7.29533 6.69375C7.30189 6.68333 7.31502 6.67708 7.33908 6.67292C7.35758 6.66805 7.37689 6.66663 7.39596 6.66875C7.41346 6.67083 7.42439 6.67708 7.42877 6.6875C7.43314 6.69167 7.43314 6.69792 7.43314 6.70208L7.42439 6.72708H7.43533C7.43968 6.72771 7.44411 6.72771 7.44846 6.72708L7.48564 6.72083L7.50752 6.7625M7.33252 6.8L7.29752 6.80625C7.28095 6.80948 7.26371 6.8065 7.24939 6.79792C7.23179 6.78364 7.21888 6.76483 7.21221 6.74375L7.19471 6.69792C7.19143 6.68933 7.18528 6.68201 7.17721 6.67708C7.17107 6.67292 7.16447 6.66943 7.15752 6.66667L7.17064 6.62292C7.18377 6.62917 7.19252 6.63542 7.20127 6.64375L7.22314 6.67917L7.23408 6.71042L7.25814 6.75625C7.26471 6.7625 7.27346 6.76458 7.28002 6.7625L7.31721 6.75833L7.33252 6.8ZM7.17939 6.64375L7.15752 6.68333L7.09189 6.66875L7.11377 6.62917L7.17939 6.64375ZM7.21877 6.81875L7.05471 6.83333L7.04596 6.79167L7.18158 6.77708C7.17854 6.77068 7.17406 6.76499 7.16846 6.76042C7.16148 6.75577 7.15417 6.75159 7.14658 6.74792L7.15752 6.70625C7.17283 6.71458 7.18377 6.725 7.19252 6.73333C7.19908 6.74375 7.20564 6.75833 7.21002 6.77708L7.21877 6.81875ZM7.08752 6.83958C7.0714 6.83919 7.05532 6.8378 7.03939 6.83542C7.02671 6.83295 7.01427 6.82946 7.00221 6.825C6.99312 6.82887 6.98357 6.83167 6.97377 6.83333C6.9614 6.83435 6.94896 6.83435 6.93658 6.83333H6.89283C6.88367 6.83338 6.87464 6.83123 6.86658 6.82708C6.86002 6.82292 6.85564 6.81667 6.84908 6.80625C6.8399 6.81543 6.82869 6.82254 6.81627 6.82708L6.77908 6.82917H6.74189L6.74627 6.78542H6.78346C6.80096 6.78542 6.81627 6.78542 6.82939 6.77708C6.83749 6.77421 6.84452 6.76911 6.84958 6.76244C6.85464 6.75576 6.85751 6.74781 6.85783 6.73958L6.87314 6.74167C6.87221 6.75068 6.87148 6.75971 6.87096 6.76875C6.87096 6.775 6.87096 6.77917 6.87752 6.78333C6.88408 6.7875 6.89064 6.78958 6.89939 6.78958H6.93221C6.95408 6.78958 6.96721 6.78958 6.97596 6.78542C6.98908 6.78125 6.99564 6.775 6.99783 6.7625L7.00002 6.75417C7.00002 6.75417 7.00658 6.75417 7.01096 6.75L7.02189 6.74583V6.75417C7.02193 6.75625 7.02193 6.75833 7.02189 6.76042L7.01533 6.78333C7.02959 6.78796 7.04422 6.79144 7.05908 6.79375C7.06127 6.78958 7.05908 6.78542 7.05689 6.77917L7.05033 6.76667C7.05033 6.76441 7.0511 6.76222 7.05252 6.76042L7.05908 6.75625L7.08096 6.7375L7.09189 6.75833V6.77917L7.08752 6.83958ZM6.84033 6.65833L6.79658 6.68542L6.76814 6.66667L6.73752 6.6875L6.69596 6.66667L6.73533 6.63958L6.76814 6.65625L6.80096 6.63542L6.84033 6.65625M6.77471 6.82708L6.61502 6.80208L6.63252 6.76042L6.76814 6.78125C6.76814 6.77292 6.76814 6.76667 6.76377 6.76042C6.76066 6.75456 6.757 6.74898 6.75283 6.74375L6.78783 6.70833C6.79658 6.72083 6.80096 6.72917 6.80314 6.74167C6.80314 6.75208 6.79877 6.76667 6.79221 6.78542L6.77471 6.82708ZM6.64127 6.80625L6.60627 6.8C6.58658 6.79583 6.57564 6.7875 6.57346 6.775C6.56908 6.7625 6.57564 6.74375 6.59096 6.71667L6.61721 6.675C6.62377 6.66458 6.62596 6.65625 6.62377 6.65C6.62249 6.64481 6.62027 6.63988 6.61721 6.63542L6.66533 6.60208C6.67189 6.6125 6.67189 6.62292 6.67189 6.63125C6.67189 6.64167 6.66533 6.65417 6.65658 6.66875L6.63908 6.69792C6.62927 6.71174 6.62256 6.72734 6.61939 6.74375C6.61939 6.75208 6.62377 6.75625 6.63033 6.75833L6.66533 6.76667L6.64127 6.80833M6.55814 6.64167L6.50346 6.66458L6.46408 6.62917L6.52096 6.60833L6.55814 6.64375M6.53627 6.78125C6.52628 6.79266 6.51447 6.8025 6.50127 6.81042C6.48997 6.8171 6.47728 6.82136 6.46408 6.82292L6.41158 6.82083C6.39072 6.81788 6.3702 6.813 6.35033 6.80625C6.32216 6.79875 6.29653 6.78439 6.27596 6.76458C6.26283 6.74792 6.26283 6.73333 6.27596 6.71875C6.28826 6.70517 6.3031 6.69387 6.31971 6.68542C6.33721 6.675 6.36346 6.66458 6.40283 6.65208L6.41158 6.6625L6.35033 6.6875C6.33939 6.69375 6.32846 6.7 6.32189 6.70833C6.31314 6.71667 6.31533 6.72917 6.32627 6.74167C6.36575 6.77081 6.41413 6.7869 6.46408 6.7875C6.49033 6.7875 6.50783 6.78125 6.51439 6.77292C6.52096 6.76667 6.52314 6.76042 6.52533 6.75208L6.52971 6.71875L6.58439 6.6875C6.5847 6.69796 6.58396 6.70842 6.58221 6.71875C6.57753 6.73124 6.57007 6.74261 6.56033 6.75208L6.53408 6.78125" fill="#BF0000"/>
</g>
</g>
<defs>
<clipPath id="clip0_817_2373">
<rect width="14" height="10" rx="2" fill="white"/>
</clipPath>
</defs>
</svg>
