<svg width="40" height="40" viewBox="0 0 30 40" fill="none" xmlns="http://www.w3.org/2000/svg">
<path d="M15.3032 0.75C11.4863 0.754731 7.82698 2.34977 5.128 5.18524C2.42903 8.0207 0.910762 11.8651 0.906259 15.875C0.90275 19.1518 1.92152 22.3394 3.80659 24.95C3.80659 24.95 4.19924 25.4931 4.26337 25.5715L15.3032 39.25L26.3483 25.5646C26.4059 25.4918 26.7998 24.95 26.7998 24.95L26.8012 24.9459C28.6849 22.3362 29.7032 19.1502 29.7002 15.875C29.6957 11.8651 28.1774 8.0207 25.4784 5.18524C22.7795 2.34977 19.1201 0.754731 15.3032 0.75ZM15.3032 21.375C14.2678 21.375 13.2556 21.0524 12.3947 20.4481C11.5337 19.8437 10.8627 18.9848 10.4665 17.9798C10.0702 16.9748 9.96655 15.8689 10.1686 14.802C10.3706 13.7351 10.8692 12.7551 11.6013 11.9859C12.3335 11.2167 13.2663 10.6929 14.2819 10.4807C15.2974 10.2685 16.35 10.3774 17.3067 10.7937C18.2633 11.2099 19.0809 11.9149 19.6562 12.8194C20.2314 13.7238 20.5385 14.7872 20.5385 15.875C20.5367 17.3331 19.9846 18.731 19.0032 19.7621C18.0218 20.7931 16.6912 21.3732 15.3032 21.375Z" fill="#108DE5"/>
</svg>
